<svg id="svg" version="1.1" width="400" height="398.6666666666667" viewBox="0 0 400 398.6666666666667" xmlns="http://www.w3.org/2000/svg" xmlns:xlink="http://www.w3.org/1999/xlink" ><g id="svgg"><path id="path0" d="M81.954 122.426 C 79.103 122.818,76.321 123.314,75.773 123.529 C 75.224 123.743,73.927 124.044,72.891 124.196 C 71.854 124.348,70.901 124.642,70.773 124.849 C 70.646 125.055,70.249 125.224,69.893 125.224 C 68.935 125.224,62.851 128.016,60.419 129.572 C 59.541 130.133,58.515 130.775,58.137 130.999 C 53.145 133.960,45.497 141.973,42.672 147.202 C 40.712 150.831,38.684 155.438,38.684 156.262 C 38.684 156.651,38.507 157.146,38.291 157.362 C 37.825 157.828,36.740 163.290,36.278 167.498 C 35.839 171.493,35.842 215.145,36.281 218.943 C 36.801 223.433,37.823 228.611,38.280 229.067 C 38.502 229.290,38.684 229.790,38.684 230.179 C 38.684 230.862,39.273 232.312,41.088 236.092 C 43.365 240.837,47.682 246.766,51.105 249.850 C 55.664 253.958,62.716 258.772,64.227 258.809 C 64.567 258.817,65.055 259.033,65.311 259.289 C 66.093 260.071,72.015 262.037,77.767 263.423 C 81.904 264.421,97.962 264.494,101.296 263.531 C 102.502 263.183,104.280 262.782,105.246 262.641 C 106.212 262.499,107.199 262.257,107.440 262.102 C 107.680 261.947,108.594 261.612,109.472 261.357 C 112.018 260.618,114.046 259.792,114.549 259.289 C 114.805 259.033,115.270 258.824,115.581 258.824 C 116.391 258.824,120.613 256.227,123.525 253.938 C 129.254 249.435,133.998 241.893,133.998 237.288 C 133.998 234.036,133.657 233.654,126.447 228.813 C 124.568 227.551,122.762 226.338,122.433 226.116 C 113.570 220.147,111.649 220.142,107.750 226.082 C 103.975 231.834,101.713 233.892,97.523 235.386 C 94.868 236.333,84.561 236.406,82.806 235.491 C 82.178 235.163,81.370 234.891,81.011 234.886 C 78.057 234.846,69.407 226.107,69.389 223.146 C 69.388 222.918,69.101 222.193,68.751 221.535 C 68.290 220.667,68.057 218.738,67.900 214.495 L 67.683 208.651 68.719 207.616 L 69.754 206.580 100.994 206.580 C 129.865 206.580,132.384 206.527,134.213 205.875 C 138.342 204.402,140.238 202.621,141.826 198.723 C 142.828 196.264,143.284 169.441,142.394 165.304 C 142.205 164.427,141.844 162.632,141.592 161.316 C 140.772 157.040,137.873 149.489,136.491 148.027 C 136.216 147.738,135.992 147.346,135.992 147.158 C 135.992 146.263,132.279 141.398,129.043 138.053 C 125.653 134.549,124.731 133.795,119.884 130.560 C 117.281 128.822,109.936 125.224,108.992 125.224 C 108.758 125.224,108.052 124.956,107.423 124.629 C 106.795 124.301,105.889 124.032,105.410 124.030 C 104.931 124.029,104.033 123.836,103.416 123.601 C 99.225 122.005,89.071 121.450,81.954 122.426 M308.275 121.885 C 307.727 121.962,305.753 122.217,303.888 122.452 C 297.550 123.249,288.842 125.584,284.840 127.560 C 277.697 131.087,274.361 133.270,270.432 136.989 C 265.405 141.748,262.561 146.365,262.139 150.451 C 261.751 154.207,262.252 154.824,269.641 159.698 C 273.233 162.068,276.969 164.559,277.943 165.234 C 281.907 167.979,285.039 167.207,288.135 162.721 C 292.329 156.644,295.499 154.080,302.280 151.283 C 303.776 150.666,305.152 150.550,310.854 150.557 L 317.647 150.566 320.837 152.147 C 329.040 156.211,332.602 162.606,332.602 173.264 L 332.602 178.194 331.375 179.227 L 330.148 180.259 298.099 180.259 C 278.943 180.259,265.958 180.407,265.822 180.627 C 265.696 180.830,265.064 181.112,264.416 181.254 C 262.919 181.583,259.422 185.357,258.762 187.355 C 258.072 189.446,257.804 215.362,258.415 220.937 C 260.481 239.794,275.346 256.838,294.317 262.104 C 301.592 264.123,302.215 264.200,311.266 264.200 C 320.318 264.200,320.954 264.122,328.215 262.103 C 331.019 261.324,337.793 258.511,338.616 257.784 C 338.962 257.479,339.385 257.228,339.555 257.228 C 339.725 257.228,340.608 256.720,341.517 256.099 C 342.427 255.478,344.049 254.371,345.123 253.639 C 349.803 250.448,356.599 242.370,359.213 236.889 C 361.354 232.402,362.410 229.790,362.677 228.315 C 362.837 227.438,363.260 225.912,363.617 224.925 C 364.189 223.348,364.285 219.887,364.408 196.411 C 364.568 165.944,364.235 160.613,361.871 155.800 C 361.566 155.179,361.316 154.510,361.316 154.313 C 361.316 151.387,354.421 141.176,349.012 136.093 C 345.851 133.123,340.468 129.438,336.590 127.589 C 333.537 126.134,332.497 125.721,329.611 124.818 C 328.076 124.338,326.281 123.776,325.623 123.571 C 322.357 122.550,311.225 121.468,308.275 121.885 M160.365 125.226 C 159.623 125.401,158.366 126.193,157.573 126.986 L 156.132 128.428 156.132 138.108 L 156.132 147.789 157.129 149.051 C 159.124 151.576,161.248 151.999,171.664 151.942 C 176.720 151.914,181.257 151.903,181.744 151.918 C 183.900 151.982,183.848 150.955,183.848 193.438 C 183.848 232.369,183.844 232.585,183.024 233.737 L 182.199 234.895 170.953 234.895 L 159.707 234.895 158.190 235.926 C 155.549 237.720,155.135 239.347,155.135 247.914 C 155.135 256.631,155.554 258.533,157.867 260.303 L 159.322 261.416 198.635 261.416 C 247.586 261.416,242.473 262.980,242.473 248.007 C 242.473 234.762,242.629 234.898,227.463 234.889 C 221.790 234.886,216.949 234.751,216.706 234.590 C 214.927 233.413,214.955 234.091,214.955 193.027 C 214.955 152.347,214.890 154.194,216.411 151.996 C 216.467 151.915,220.943 151.879,226.358 151.916 C 237.834 151.995,239.745 151.657,241.603 149.220 L 242.672 147.819 242.672 138.139 L 242.672 128.459 241.294 127.037 C 240.536 126.255,239.280 125.439,238.502 125.223 C 236.792 124.748,162.378 124.751,160.365 125.226 M93.519 150.525 C 104.853 152.512,110.867 160.349,110.867 173.129 L 110.867 178.194 109.627 179.238 L 108.387 180.281 89.054 180.171 L 69.721 180.060 68.704 178.877 C 66.223 175.992,67.966 164.853,71.889 158.524 C 72.636 157.319,76.075 154.038,77.291 153.370 C 80.837 151.423,82.979 150.749,86.740 150.396 C 88.714 150.210,90.329 150.037,90.329 150.012 C 90.329 149.987,91.765 150.218,93.519 150.525 M331.629 207.146 C 333.150 208.256,332.837 220.063,331.203 223.196 C 330.879 223.818,330.612 224.471,330.611 224.648 C 330.609 224.825,329.899 226.013,329.033 227.288 C 321.045 239.051,302.403 239.402,293.941 227.948 C 289.989 222.597,287.952 211.115,290.356 207.739 L 291.181 206.580 311.018 206.580 C 327.507 206.580,330.985 206.676,331.629 207.146 " stroke="none" fill="#fbfbfc" fill-rule="evenodd"></path><path id="path1" d="M175.474 0.399 C 175.474 0.641,173.704 0.798,170.964 0.798 C 167.615 0.798,166.254 0.948,165.679 1.383 C 165.186 1.757,163.953 1.973,162.275 1.981 C 160.162 1.992,159.503 2.151,158.923 2.792 C 158.345 3.430,157.695 3.589,155.658 3.589 C 153.766 3.589,153.057 3.742,152.886 4.187 C 152.718 4.626,152.026 4.786,150.294 4.786 C 148.562 4.786,147.870 4.945,147.702 5.384 C 147.542 5.799,146.894 5.982,145.582 5.982 C 144.199 5.982,143.499 6.196,142.971 6.780 C 142.443 7.363,141.743 7.577,140.360 7.577 C 139.048 7.577,138.400 7.760,138.241 8.175 C 138.111 8.513,137.517 8.774,136.878 8.774 C 136.255 8.774,135.397 9.037,134.972 9.359 C 134.546 9.681,133.642 9.950,132.963 9.957 C 132.248 9.965,131.425 10.306,131.007 10.768 C 130.559 11.262,129.779 11.565,128.951 11.565 C 128.031 11.565,127.617 11.751,127.617 12.164 C 127.617 12.592,127.179 12.762,126.071 12.762 C 125.183 12.762,124.313 13.016,124.028 13.360 C 123.755 13.689,122.998 13.958,122.347 13.958 C 121.497 13.958,121.103 14.184,120.953 14.756 C 120.796 15.355,120.409 15.553,119.395 15.553 C 118.462 15.553,118.046 15.738,118.046 16.152 C 118.046 16.570,117.624 16.750,116.638 16.750 C 115.754 16.750,115.144 16.972,115.000 17.348 C 114.873 17.677,114.368 17.946,113.878 17.946 C 113.387 17.946,112.660 18.305,112.263 18.744 C 111.866 19.182,111.210 19.541,110.806 19.541 C 110.401 19.541,110.070 19.811,110.070 20.140 C 110.070 20.541,109.668 20.738,108.845 20.738 C 108.171 20.738,107.351 21.007,107.022 21.336 C 106.693 21.665,106.077 21.934,105.654 21.934 C 105.151 21.934,104.885 22.210,104.885 22.732 C 104.885 23.377,104.619 23.529,103.490 23.529 C 102.515 23.529,102.094 23.710,102.094 24.128 C 102.094 24.528,101.694 24.726,100.885 24.726 C 100.201 24.726,99.580 24.975,99.456 25.300 C 99.335 25.615,98.712 25.988,98.072 26.129 C 97.433 26.269,96.909 26.639,96.909 26.951 C 96.909 27.263,96.550 27.517,96.112 27.517 C 95.669 27.517,95.314 27.783,95.314 28.116 C 95.314 28.514,94.915 28.714,94.118 28.714 C 93.320 28.714,92.921 28.913,92.921 29.312 C 92.921 29.641,92.635 29.910,92.286 29.910 C 91.936 29.910,91.556 30.269,91.442 30.708 C 91.294 31.273,90.898 31.505,90.083 31.505 C 89.327 31.505,88.933 31.710,88.933 32.104 C 88.933 32.436,88.579 32.702,88.136 32.702 C 87.692 32.702,87.338 32.968,87.338 33.300 C 87.338 33.678,86.957 33.898,86.304 33.898 C 85.605 33.898,85.202 34.157,85.061 34.696 C 84.945 35.137,84.517 35.494,84.101 35.494 C 83.688 35.494,83.350 35.763,83.350 36.092 C 83.350 36.463,82.974 36.690,82.356 36.690 C 81.795 36.690,81.146 37.037,80.865 37.488 C 80.591 37.926,80.140 38.285,79.864 38.285 C 79.588 38.285,79.362 38.554,79.362 38.883 C 79.362 39.212,79.093 39.482,78.764 39.482 C 78.435 39.482,78.166 39.751,78.166 40.080 C 78.166 40.451,77.789 40.678,77.172 40.678 C 76.610 40.678,75.962 41.025,75.680 41.476 C 75.406 41.914,74.956 42.273,74.680 42.273 C 74.403 42.273,74.177 42.542,74.177 42.871 C 74.177 43.204,73.823 43.470,73.380 43.470 C 72.937 43.470,72.582 43.735,72.582 44.068 C 72.582 44.397,72.313 44.666,71.984 44.666 C 71.652 44.666,71.386 45.020,71.386 45.464 C 71.386 46.022,71.116 46.265,70.489 46.272 C 69.995 46.278,69.068 46.817,68.428 47.469 C 67.788 48.121,67.026 48.654,66.733 48.654 C 66.441 48.654,66.201 49.013,66.201 49.452 C 66.201 49.983,65.936 50.249,65.404 50.249 C 64.961 50.249,64.606 50.515,64.606 50.847 C 64.606 51.176,64.337 51.446,64.008 51.446 C 63.679 51.446,63.410 51.715,63.410 52.044 C 63.410 52.373,63.141 52.642,62.812 52.642 C 62.479 52.642,62.213 52.997,62.213 53.440 C 62.213 53.971,61.947 54.237,61.416 54.237 C 60.973 54.237,60.618 54.503,60.618 54.835 C 60.618 55.165,60.349 55.434,60.020 55.434 C 59.691 55.434,59.422 55.703,59.422 56.032 C 59.422 56.361,59.153 56.630,58.824 56.630 C 58.491 56.630,58.225 56.985,58.225 57.428 C 58.225 57.959,57.959 58.225,57.428 58.225 C 56.985 58.225,56.630 58.491,56.630 58.824 C 56.630 59.153,56.361 59.422,56.032 59.422 C 55.703 59.422,55.434 59.691,55.434 60.020 C 55.434 60.349,55.165 60.618,54.835 60.618 C 54.503 60.618,54.237 60.973,54.237 61.416 C 54.237 61.947,53.971 62.213,53.440 62.213 C 52.997 62.213,52.642 62.479,52.642 62.812 C 52.642 63.141,52.373 63.410,52.044 63.410 C 51.715 63.410,51.446 63.660,51.446 63.965 C 51.446 64.271,51.176 64.624,50.847 64.750 C 50.518 64.877,50.249 65.255,50.249 65.591 C 50.249 65.936,49.902 66.201,49.452 66.201 C 49.001 66.201,48.654 66.467,48.654 66.812 C 48.654 67.148,48.385 67.526,48.056 67.652 C 47.715 67.783,47.458 68.378,47.458 69.036 C 47.458 69.795,47.253 70.189,46.859 70.189 C 46.530 70.189,46.261 70.459,46.261 70.788 C 46.261 71.120,45.907 71.386,45.464 71.386 C 45.020 71.386,44.666 71.652,44.666 71.984 C 44.666 72.313,44.397 72.582,44.068 72.582 C 43.735 72.582,43.470 72.937,43.470 73.380 C 43.470 73.823,43.204 74.177,42.871 74.177 C 42.542 74.177,42.273 74.407,42.273 74.687 C 42.273 74.967,41.914 75.504,41.476 75.880 C 41.037 76.255,40.678 76.923,40.678 77.364 C 40.678 77.811,40.413 78.166,40.080 78.166 C 39.751 78.166,39.482 78.435,39.482 78.764 C 39.482 79.093,39.207 79.362,38.871 79.362 C 38.535 79.362,38.141 79.676,37.996 80.060 C 37.850 80.444,37.497 80.995,37.211 81.285 C 36.924 81.575,36.690 82.158,36.690 82.581 C 36.690 83.004,36.421 83.350,36.092 83.350 C 35.763 83.350,35.494 83.688,35.494 84.101 C 35.494 84.517,35.137 84.945,34.696 85.061 C 34.157 85.202,33.898 85.605,33.898 86.304 C 33.898 86.957,33.678 87.338,33.300 87.338 C 32.968 87.338,32.702 87.692,32.702 88.136 C 32.702 88.579,32.436 88.933,32.104 88.933 C 31.705 88.933,31.505 89.332,31.505 90.130 C 31.505 90.938,31.307 91.326,30.895 91.326 C 30.559 91.326,30.165 91.640,30.020 92.024 C 29.874 92.408,29.521 92.959,29.235 93.249 C 28.948 93.539,28.714 94.103,28.714 94.502 C 28.714 94.902,28.445 95.332,28.116 95.458 C 27.766 95.592,27.517 96.190,27.517 96.897 C 27.517 97.840,27.342 98.106,26.720 98.106 C 26.203 98.106,25.922 98.372,25.922 98.861 C 25.922 99.276,25.653 99.719,25.324 99.845 C 24.995 99.971,24.726 100.529,24.726 101.084 C 24.726 101.716,24.502 102.094,24.128 102.094 C 23.714 102.094,23.529 102.510,23.529 103.443 C 23.529 104.457,23.331 104.844,22.732 105.001 C 22.204 105.139,21.934 105.545,21.934 106.201 C 21.934 106.747,21.665 107.296,21.336 107.422 C 20.986 107.557,20.738 108.154,20.738 108.861 C 20.738 109.670,20.540 110.070,20.140 110.070 C 19.726 110.070,19.541 110.486,19.541 111.419 C 19.541 112.433,19.343 112.820,18.744 112.977 C 18.163 113.129,17.946 113.521,17.946 114.419 C 17.946 115.250,17.751 115.653,17.348 115.653 C 16.954 115.653,16.750 116.047,16.750 116.807 C 16.750 117.464,16.493 118.059,16.152 118.190 C 15.805 118.323,15.553 118.920,15.553 119.609 C 15.553 120.275,15.278 120.952,14.926 121.149 C 14.581 121.342,14.199 122.248,14.076 123.163 C 13.938 124.195,13.646 124.826,13.307 124.826 C 12.918 124.826,12.762 125.398,12.762 126.820 C 12.762 128.326,12.615 128.814,12.164 128.814 C 11.750 128.814,11.565 129.229,11.565 130.163 C 11.565 131.177,11.367 131.564,10.768 131.721 C 10.120 131.890,9.970 132.265,9.970 133.719 C 9.970 134.941,9.781 135.581,9.372 135.737 C 8.962 135.895,8.774 136.536,8.774 137.774 C 8.774 139.115,8.619 139.581,8.175 139.581 C 7.706 139.581,7.577 140.130,7.577 142.127 C 7.577 144.337,7.472 144.700,6.780 144.881 C 6.117 145.055,5.982 145.425,5.982 147.072 C 5.982 148.348,5.769 149.232,5.384 149.551 C 4.986 149.881,4.786 150.776,4.786 152.221 C 4.786 153.621,4.573 154.607,4.187 154.992 C 3.750 155.429,3.589 156.496,3.589 158.952 C 3.589 162.047,3.526 162.313,2.792 162.313 C 2.062 162.313,1.994 162.579,1.994 165.455 C 1.994 167.761,1.835 168.728,1.396 169.093 C 0.915 169.492,0.798 170.713,0.798 175.323 C 0.798 178.880,0.646 181.057,0.399 181.057 C 0.139 181.057,0.000 187.504,0.000 199.601 C 0.000 211.698,0.139 218.146,0.399 218.146 C 0.646 218.146,0.798 220.343,0.798 223.941 C 0.798 228.724,0.902 229.776,1.396 229.965 C 1.858 230.143,1.994 230.917,1.994 233.380 C 1.994 236.230,2.078 236.587,2.792 236.774 C 3.502 236.960,3.589 237.318,3.589 240.050 C 3.589 242.130,3.778 243.367,4.175 243.892 C 4.509 244.334,4.766 245.551,4.773 246.731 C 4.781 248.021,5.010 249.021,5.384 249.395 C 5.758 249.769,5.982 250.749,5.982 252.015 C 5.982 253.772,6.087 254.038,6.780 254.038 C 7.495 254.038,7.577 254.304,7.577 256.630 C 7.577 258.668,7.705 259.222,8.175 259.222 C 8.619 259.222,8.774 259.689,8.774 261.029 C 8.774 262.268,8.962 262.909,9.372 263.066 C 9.788 263.226,9.970 263.875,9.970 265.201 C 9.970 266.770,10.111 267.142,10.768 267.314 C 11.348 267.466,11.565 267.858,11.565 268.756 C 11.565 269.587,11.761 269.990,12.164 269.990 C 12.615 269.990,12.762 270.477,12.762 271.984 C 12.762 273.491,12.908 273.978,13.360 273.978 C 13.778 273.978,13.958 274.399,13.958 275.374 C 13.958 276.238,14.262 277.074,14.756 277.567 C 15.199 278.010,15.553 278.897,15.553 279.561 C 15.553 280.359,15.753 280.758,16.152 280.758 C 16.552 280.758,16.750 281.158,16.750 281.967 C 16.750 282.673,16.998 283.271,17.348 283.405 C 17.689 283.536,17.946 284.131,17.946 284.788 C 17.946 285.676,18.130 285.942,18.744 285.942 C 19.389 285.942,19.541 286.208,19.541 287.338 C 19.541 288.313,19.722 288.734,20.140 288.734 C 20.557 288.734,20.738 289.155,20.738 290.130 C 20.738 291.104,20.918 291.525,21.336 291.525 C 21.714 291.525,21.934 291.906,21.934 292.560 C 21.934 293.259,22.193 293.662,22.732 293.803 C 23.331 293.959,23.529 294.347,23.529 295.361 C 23.529 296.294,23.714 296.710,24.128 296.710 C 24.522 296.710,24.726 297.104,24.726 297.864 C 24.726 298.521,24.983 299.116,25.324 299.247 C 25.653 299.373,25.922 299.751,25.922 300.087 C 25.922 300.432,26.269 300.698,26.720 300.698 C 27.366 300.698,27.517 300.964,27.517 302.094 C 27.517 303.069,27.698 303.490,28.116 303.490 C 28.485 303.490,28.714 303.864,28.714 304.466 C 28.714 305.482,30.264 307.478,31.053 307.478 C 31.302 307.478,31.505 308.022,31.505 308.686 C 31.505 309.393,31.754 309.991,32.104 310.125 C 32.433 310.251,32.702 310.605,32.702 310.910 C 32.702 311.216,32.971 311.466,33.300 311.466 C 33.672 311.466,33.898 311.842,33.898 312.459 C 33.898 313.021,34.245 313.669,34.696 313.951 C 35.135 314.225,35.494 314.675,35.494 314.951 C 35.494 315.228,35.763 315.454,36.092 315.454 C 36.466 315.454,36.690 315.832,36.690 316.463 C 36.690 317.018,36.959 317.576,37.288 317.702 C 37.617 317.828,37.886 318.199,37.886 318.525 C 37.886 318.851,38.245 319.211,38.684 319.326 C 39.123 319.441,39.482 319.783,39.482 320.086 C 39.482 320.390,39.751 320.638,40.080 320.638 C 40.483 320.638,40.678 321.041,40.678 321.872 C 40.678 322.770,40.895 323.162,41.476 323.314 C 41.914 323.429,42.273 323.771,42.273 324.074 C 42.273 324.378,42.542 324.626,42.871 324.626 C 43.204 324.626,43.470 324.981,43.470 325.424 C 43.470 325.867,43.735 326.221,44.068 326.221 C 44.397 326.221,44.666 326.491,44.666 326.820 C 44.666 327.152,45.020 327.418,45.464 327.418 C 46.051 327.418,46.261 327.684,46.261 328.427 C 46.261 328.983,46.530 329.540,46.859 329.666 C 47.188 329.793,47.458 330.152,47.458 330.464 C 47.458 330.776,47.727 331.135,48.056 331.262 C 48.385 331.388,48.654 331.741,48.654 332.047 C 48.654 332.352,49.013 332.602,49.452 332.602 C 49.983 332.602,50.249 332.868,50.249 333.400 C 50.249 333.843,50.515 334.197,50.847 334.197 C 51.176 334.197,51.446 334.467,51.446 334.796 C 51.446 335.125,51.715 335.394,52.044 335.394 C 52.373 335.394,52.642 335.663,52.642 335.992 C 52.642 336.324,52.997 336.590,53.440 336.590 C 53.971 336.590,54.237 336.856,54.237 337.388 C 54.237 337.831,54.503 338.185,54.835 338.185 C 55.165 338.185,55.434 338.455,55.434 338.784 C 55.434 339.113,55.703 339.382,56.032 339.382 C 56.361 339.382,56.630 339.668,56.630 340.017 C 56.630 340.367,56.989 340.747,57.428 340.862 C 57.866 340.976,58.225 341.318,58.225 341.622 C 58.225 341.925,58.495 342.173,58.824 342.173 C 59.153 342.173,59.422 342.443,59.422 342.772 C 59.422 343.101,59.691 343.370,60.020 343.370 C 60.349 343.370,60.618 343.656,60.618 344.005 C 60.618 344.355,60.977 344.735,61.416 344.850 C 61.854 344.964,62.213 345.306,62.213 345.610 C 62.213 345.913,62.483 346.162,62.812 346.162 C 63.141 346.162,63.410 346.431,63.410 346.760 C 63.410 347.089,63.679 347.358,64.008 347.358 C 64.337 347.358,64.606 347.644,64.606 347.993 C 64.606 348.343,64.965 348.723,65.404 348.838 C 65.842 348.952,66.201 349.294,66.201 349.598 C 66.201 349.901,66.471 350.150,66.800 350.150 C 67.129 350.150,67.398 350.419,67.398 350.748 C 67.398 351.080,67.752 351.346,68.195 351.346 C 68.634 351.346,68.993 351.601,68.993 351.912 C 68.993 352.224,69.531 352.597,70.189 352.742 C 70.847 352.886,71.386 353.259,71.386 353.571 C 71.386 353.883,71.655 354.138,71.984 354.138 C 72.313 354.138,72.582 354.407,72.582 354.736 C 72.582 355.068,72.937 355.334,73.380 355.334 C 73.819 355.334,74.181 355.558,74.184 355.833 C 74.196 356.690,76.037 358.126,77.125 358.126 C 77.784 358.126,78.166 358.345,78.166 358.724 C 78.166 359.053,78.435 359.322,78.764 359.322 C 79.093 359.322,79.365 359.546,79.369 359.821 C 79.381 360.678,81.221 362.114,82.309 362.114 C 82.968 362.114,83.350 362.333,83.350 362.712 C 83.350 363.044,83.704 363.310,84.148 363.310 C 84.679 363.310,84.945 363.576,84.945 364.108 C 84.945 364.622,85.211 364.905,85.694 364.905 C 86.106 364.905,86.666 365.174,86.939 365.503 C 87.212 365.833,87.773 366.102,88.184 366.102 C 88.596 366.102,88.933 366.371,88.933 366.700 C 88.933 367.029,89.163 367.298,89.443 367.298 C 89.723 367.298,90.260 367.657,90.635 368.096 C 91.011 368.534,91.679 368.893,92.120 368.893 C 92.566 368.893,92.921 369.158,92.921 369.492 C 92.921 369.890,93.320 370.090,94.118 370.090 C 94.915 370.090,95.314 370.289,95.314 370.688 C 95.314 371.017,95.652 371.286,96.065 371.286 C 96.481 371.286,96.909 371.642,97.025 372.084 C 97.163 372.612,97.569 372.881,98.225 372.881 C 98.771 372.881,99.320 373.151,99.446 373.480 C 99.581 373.829,100.178 374.078,100.885 374.078 C 101.694 374.078,102.094 374.276,102.094 374.676 C 102.094 375.005,102.425 375.274,102.830 375.274 C 103.234 375.274,103.890 375.633,104.287 376.072 C 104.684 376.510,105.231 376.869,105.503 376.869 C 105.774 376.869,106.100 377.139,106.226 377.468 C 106.352 377.797,106.910 378.066,107.465 378.066 C 108.020 378.066,108.833 378.425,109.272 378.863 C 109.711 379.302,110.352 379.661,110.696 379.661 C 111.041 379.661,111.592 379.930,111.921 380.259 C 112.250 380.588,112.933 380.857,113.439 380.857 C 113.945 380.857,114.582 381.127,114.855 381.456 C 115.128 381.785,115.937 382.054,116.652 382.054 C 117.617 382.054,118.007 382.260,118.161 382.851 C 118.313 383.432,118.705 383.649,119.604 383.649 C 120.435 383.649,120.837 383.844,120.837 384.247 C 120.837 384.665,121.258 384.845,122.233 384.845 C 123.208 384.845,123.629 385.026,123.629 385.444 C 123.629 385.894,124.111 386.042,125.577 386.042 C 127.189 386.042,127.560 386.179,127.733 386.839 C 127.883 387.414,128.277 387.637,129.142 387.637 C 129.802 387.637,130.406 387.828,130.484 388.062 C 130.562 388.295,131.400 388.590,132.346 388.717 C 133.293 388.844,134.160 389.191,134.275 389.489 C 134.402 389.821,135.104 390.030,136.090 390.030 C 137.105 390.030,137.871 390.266,138.166 390.669 C 138.427 391.026,139.454 391.400,140.496 391.517 C 141.521 391.633,142.564 391.974,142.814 392.274 C 143.096 392.614,144.082 392.822,145.413 392.822 C 147.053 392.822,147.557 392.962,147.557 393.420 C 147.557 393.890,148.111 394.018,150.150 394.018 C 152.099 394.018,152.742 394.156,152.742 394.573 C 152.742 395.329,153.632 395.613,155.993 395.613 C 157.230 395.613,158.210 395.839,158.581 396.211 C 158.999 396.629,160.020 396.810,161.955 396.810 C 164.055 396.810,164.787 396.955,164.960 397.408 C 165.147 397.893,166.085 398.006,169.933 398.006 C 172.829 398.006,174.676 398.161,174.676 398.405 C 174.676 398.667,183.450 398.804,200.199 398.804 C 216.949 398.804,225.723 398.667,225.723 398.405 C 225.723 398.162,227.522 398.006,230.322 398.006 C 234.041 398.006,234.964 397.892,235.150 397.408 C 235.327 396.946,236.098 396.810,238.540 396.810 C 240.981 396.810,241.752 396.673,241.930 396.211 C 242.096 395.778,242.781 395.612,244.410 395.608 C 247.213 395.601,248.455 395.282,248.455 394.570 C 248.455 394.168,249.039 394.018,250.599 394.018 C 252.019 394.018,252.912 393.816,253.240 393.420 C 253.558 393.037,254.441 392.822,255.694 392.822 C 257.067 392.822,257.721 392.643,257.882 392.223 C 258.039 391.815,258.678 391.625,259.901 391.625 C 261.354 391.625,261.729 391.476,261.898 390.828 C 262.071 390.167,262.442 390.030,264.054 390.030 C 265.520 390.030,266.002 389.882,266.002 389.432 C 266.002 388.988,266.469 388.833,267.809 388.833 C 269.048 388.833,269.688 388.645,269.846 388.235 C 269.987 387.866,270.594 387.637,271.429 387.637 C 272.250 387.637,273.095 387.324,273.579 386.839 C 274.022 386.396,274.909 386.042,275.573 386.042 C 276.320 386.042,276.770 385.837,276.770 385.496 C 276.770 385.156,277.405 384.865,278.456 384.724 C 279.384 384.600,280.206 384.307,280.284 384.074 C 280.362 383.840,280.755 383.649,281.157 383.649 C 282.315 383.649,283.151 383.213,283.151 382.609 C 283.151 382.240,283.619 382.054,284.546 382.054 C 285.521 382.054,285.942 381.873,285.942 381.456 C 285.942 381.055,286.342 380.857,287.151 380.857 C 287.858 380.857,288.455 380.609,288.590 380.259 C 288.716 379.930,289.247 379.661,289.770 379.661 C 290.293 379.661,290.945 379.302,291.219 378.863 C 291.522 378.379,292.149 378.066,292.818 378.066 C 293.530 378.066,293.918 377.855,293.918 377.468 C 293.918 377.065,294.321 376.869,295.152 376.869 C 296.050 376.869,296.442 376.653,296.594 376.072 C 296.742 375.507,297.138 375.274,297.953 375.274 C 298.709 375.274,299.103 375.069,299.103 374.676 C 299.103 374.347,299.440 374.078,299.851 374.078 C 300.263 374.078,300.824 373.809,301.097 373.480 C 301.370 373.151,301.947 372.881,302.379 372.881 C 302.830 372.881,303.254 372.541,303.374 372.084 C 303.522 371.519,303.918 371.286,304.732 371.286 C 305.489 371.286,305.882 371.081,305.882 370.688 C 305.882 370.356,306.237 370.090,306.680 370.090 C 307.123 370.090,307.478 369.824,307.478 369.492 C 307.478 369.093,307.876 368.893,308.674 368.893 C 309.605 368.893,309.870 368.716,309.870 368.096 C 309.870 367.564,310.136 367.298,310.668 367.298 C 311.111 367.298,311.466 367.032,311.466 366.700 C 311.466 366.301,311.864 366.102,312.662 366.102 C 313.460 366.102,313.858 365.902,313.858 365.503 C 313.858 365.171,314.213 364.905,314.656 364.905 C 315.188 364.905,315.454 364.639,315.454 364.108 C 315.454 363.487,315.720 363.310,316.650 363.310 C 317.448 363.310,317.846 363.111,317.846 362.712 C 317.846 362.380,318.201 362.114,318.644 362.114 C 319.087 362.114,319.442 361.848,319.442 361.515 C 319.442 361.186,319.711 360.917,320.040 360.917 C 320.369 360.917,320.997 360.558,321.436 360.120 C 321.874 359.681,322.502 359.322,322.832 359.322 C 323.161 359.322,323.430 359.053,323.430 358.724 C 323.430 358.395,323.699 358.126,324.028 358.126 C 324.357 358.126,324.626 357.856,324.626 357.527 C 324.626 357.198,324.895 356.929,325.224 356.929 C 325.557 356.929,325.823 356.575,325.823 356.132 C 325.823 355.509,326.088 355.334,327.031 355.334 C 327.738 355.334,328.336 355.085,328.470 354.736 C 328.596 354.407,328.949 354.138,329.255 354.138 C 329.561 354.138,329.811 353.889,329.811 353.586 C 329.811 353.282,330.169 352.940,330.608 352.826 C 331.047 352.711,331.406 352.331,331.406 351.982 C 331.406 351.632,331.675 351.346,332.004 351.346 C 332.333 351.346,332.602 351.077,332.602 350.748 C 332.602 350.415,332.957 350.150,333.400 350.150 C 333.843 350.150,334.197 349.884,334.197 349.551 C 334.197 349.222,334.467 348.953,334.796 348.953 C 335.128 348.953,335.394 348.599,335.394 348.156 C 335.394 347.717,335.627 347.358,335.911 347.358 C 336.477 347.358,337.910 346.360,338.918 345.264 C 339.270 344.880,339.788 344.566,340.069 344.566 C 340.349 344.566,340.578 344.394,340.578 344.183 C 340.578 343.695,343.709 340.578,344.199 340.578 C 344.401 340.578,344.566 340.390,344.566 340.160 C 344.566 339.674,346.515 337.787,347.017 337.787 C 347.205 337.787,347.358 337.248,347.358 336.590 C 347.358 335.793,347.557 335.394,347.956 335.394 C 348.285 335.394,348.554 335.125,348.554 334.796 C 348.554 334.463,348.909 334.197,349.352 334.197 C 349.884 334.197,350.150 333.932,350.150 333.400 C 350.150 332.957,350.415 332.602,350.748 332.602 C 351.077 332.602,351.346 332.333,351.346 332.004 C 351.346 331.675,351.615 331.406,351.944 331.406 C 352.273 331.406,352.542 331.158,352.542 330.854 C 352.542 330.551,352.901 330.209,353.340 330.094 C 353.779 329.979,354.138 329.599,354.138 329.250 C 354.138 328.900,354.407 328.614,354.736 328.614 C 355.065 328.614,355.334 328.345,355.334 328.016 C 355.334 327.687,355.603 327.418,355.932 327.418 C 356.350 327.418,356.530 326.997,356.530 326.022 C 356.530 324.892,356.682 324.626,357.328 324.626 C 357.771 324.626,358.126 324.360,358.126 324.028 C 358.126 323.699,358.395 323.430,358.724 323.430 C 359.053 323.430,359.322 323.180,359.322 322.874 C 359.322 322.569,359.591 322.215,359.920 322.089 C 360.249 321.963,360.518 321.535,360.518 321.137 C 360.518 320.740,360.877 320.157,361.316 319.840 C 361.755 319.524,362.114 319.036,362.114 318.755 C 362.114 318.475,362.383 318.245,362.712 318.245 C 363.044 318.245,363.310 317.891,363.310 317.448 C 363.310 317.005,363.576 316.650,363.908 316.650 C 364.307 316.650,364.506 316.251,364.506 315.454 C 364.506 314.523,364.684 314.257,365.304 314.257 C 365.836 314.257,366.102 313.991,366.102 313.460 C 366.102 313.017,366.368 312.662,366.700 312.662 C 367.099 312.662,367.298 312.263,367.298 311.466 C 367.298 310.668,367.498 310.269,367.896 310.269 C 368.229 310.269,368.495 309.915,368.495 309.472 C 368.495 308.940,368.760 308.674,369.292 308.674 C 369.912 308.674,370.090 308.408,370.090 307.478 C 370.090 306.680,370.289 306.281,370.688 306.281 C 371.020 306.281,371.286 305.927,371.286 305.484 C 371.286 305.040,371.552 304.686,371.884 304.686 C 372.278 304.686,372.483 304.292,372.483 303.536 C 372.483 302.722,372.715 302.325,373.280 302.178 C 373.861 302.026,374.078 301.634,374.078 300.735 C 374.078 299.904,374.273 299.501,374.676 299.501 C 375.008 299.501,375.274 299.147,375.274 298.704 C 375.274 298.261,375.540 297.906,375.872 297.906 C 376.266 297.906,376.471 297.513,376.471 296.756 C 376.471 295.942,376.703 295.546,377.268 295.398 C 377.849 295.246,378.066 294.854,378.066 293.956 C 378.066 293.125,378.261 292.722,378.664 292.722 C 379.078 292.722,379.262 292.306,379.262 291.373 C 379.262 290.359,379.460 289.971,380.060 289.815 C 380.588 289.677,380.857 289.271,380.857 288.614 C 380.857 288.069,381.127 287.519,381.456 287.393 C 381.805 287.259,382.054 286.661,382.054 285.955 C 382.054 285.146,382.252 284.746,382.652 284.746 C 383.070 284.746,383.250 284.325,383.250 283.350 C 383.250 282.383,383.432 281.954,383.841 281.954 C 384.166 281.954,384.536 281.461,384.665 280.857 C 384.793 280.254,385.155 279.284,385.470 278.702 C 385.784 278.120,386.042 277.197,386.042 276.651 C 386.042 276.105,386.311 275.555,386.640 275.429 C 387.008 275.288,387.238 274.682,387.238 273.853 C 387.238 273.013,387.538 272.235,388.036 271.785 C 388.475 271.388,388.833 270.571,388.833 269.971 C 388.833 269.368,389.102 268.776,389.432 268.649 C 389.842 268.492,390.030 267.851,390.030 266.613 C 390.030 265.272,390.184 264.806,390.628 264.806 C 391.080 264.806,391.226 264.318,391.226 262.812 C 391.226 261.373,391.381 260.818,391.782 260.818 C 392.473 260.818,392.822 259.951,392.822 258.235 C 392.822 257.429,393.055 256.825,393.420 256.685 C 393.867 256.514,394.018 255.798,394.018 253.851 C 394.018 251.802,394.145 251.246,394.616 251.246 C 395.085 251.246,395.214 250.698,395.214 248.701 C 395.214 246.490,395.319 246.127,396.012 245.946 C 396.701 245.766,396.810 245.402,396.810 243.279 C 396.810 241.625,397.005 240.625,397.408 240.222 C 397.823 239.807,398.006 238.790,398.006 236.904 C 398.006 234.853,398.153 234.126,398.604 233.953 C 399.094 233.766,399.202 232.779,399.202 228.527 C 399.202 225.328,399.356 223.330,399.601 223.330 C 399.863 223.330,400.000 215.088,400.000 199.402 C 400.000 183.716,399.863 175.474,399.601 175.474 C 399.357 175.474,399.202 173.542,399.202 170.476 C 399.202 166.402,399.092 165.436,398.604 165.249 C 398.148 165.074,398.006 164.329,398.006 162.120 C 398.006 160.029,397.839 159.082,397.408 158.724 C 397.014 158.397,396.810 157.506,396.810 156.115 C 396.810 153.635,396.534 152.742,395.770 152.742 C 395.352 152.742,395.214 152.099,395.214 150.150 C 395.214 148.111,395.087 147.557,394.616 147.557 C 394.151 147.557,394.018 147.024,394.018 145.152 C 394.018 143.382,393.860 142.686,393.420 142.517 C 393.014 142.361,392.822 141.725,392.822 140.539 C 392.822 139.222,392.625 138.667,392.024 138.292 C 391.428 137.920,391.226 137.362,391.226 136.083 C 391.226 134.930,391.031 134.297,390.628 134.142 C 390.225 133.988,390.030 133.355,390.030 132.203 C 390.030 131.052,389.835 130.419,389.432 130.265 C 389.082 130.130,388.833 129.533,388.833 128.826 C 388.833 127.883,388.658 127.617,388.036 127.617 C 387.345 127.617,387.238 127.351,387.238 125.623 C 387.238 124.117,387.092 123.629,386.640 123.629 C 386.230 123.629,386.042 123.218,386.042 122.322 C 386.042 121.603,385.796 120.661,385.495 120.228 C 385.194 119.796,384.820 118.858,384.665 118.146 C 384.508 117.424,384.132 116.849,383.817 116.849 C 383.435 116.849,383.250 116.394,383.250 115.454 C 383.250 114.479,383.070 114.058,382.652 114.058 C 382.252 114.058,382.054 113.658,382.054 112.849 C 382.054 112.142,381.805 111.545,381.456 111.410 C 381.127 111.284,380.857 110.735,380.857 110.189 C 380.857 109.533,380.588 109.127,380.060 108.989 C 379.460 108.832,379.262 108.445,379.262 107.431 C 379.262 106.498,379.078 106.082,378.664 106.082 C 378.268 106.082,378.066 105.686,378.066 104.912 C 378.066 104.093,377.827 103.667,377.268 103.490 C 376.709 103.312,376.471 102.886,376.471 102.067 C 376.471 101.293,376.268 100.897,375.872 100.897 C 375.540 100.897,375.274 100.543,375.274 100.100 C 375.274 99.657,375.008 99.302,374.676 99.302 C 374.277 99.302,374.078 98.903,374.078 98.106 C 374.078 97.175,373.901 96.909,373.280 96.909 C 372.634 96.909,372.483 96.643,372.483 95.513 C 372.483 94.539,372.302 94.118,371.884 94.118 C 371.555 94.118,371.286 93.848,371.286 93.519 C 371.286 93.190,371.017 92.921,370.688 92.921 C 370.270 92.921,370.090 92.500,370.090 91.525 C 370.090 90.395,369.938 90.130,369.292 90.130 C 368.849 90.130,368.495 89.864,368.495 89.531 C 368.495 89.202,368.225 88.933,367.896 88.933 C 367.479 88.933,367.298 88.512,367.298 87.537 C 367.298 86.563,367.118 86.142,366.700 86.142 C 366.371 86.142,366.102 85.872,366.102 85.543 C 366.102 85.211,365.747 84.945,365.304 84.945 C 364.658 84.945,364.506 84.679,364.506 83.549 C 364.506 82.574,364.326 82.154,363.908 82.154 C 363.579 82.154,363.310 81.884,363.310 81.555 C 363.310 81.226,363.041 80.957,362.712 80.957 C 362.383 80.957,362.114 80.638,362.114 80.248 C 362.114 79.857,361.755 79.279,361.316 78.963 C 360.877 78.647,360.518 78.069,360.518 77.679 C 360.518 77.288,360.249 76.969,359.920 76.969 C 359.588 76.969,359.322 76.615,359.322 76.171 C 359.322 75.728,359.056 75.374,358.724 75.374 C 358.395 75.374,358.126 75.105,358.126 74.776 C 358.126 74.443,357.771 74.177,357.328 74.177 C 356.714 74.177,356.530 73.912,356.530 73.024 C 356.530 72.366,356.273 71.771,355.932 71.640 C 355.603 71.514,355.334 71.136,355.334 70.800 C 355.334 70.464,355.086 70.189,354.782 70.189 C 354.479 70.189,354.137 69.831,354.022 69.392 C 353.907 68.953,353.527 68.594,353.178 68.594 C 352.828 68.594,352.542 68.325,352.542 67.996 C 352.542 67.667,352.273 67.398,351.944 67.398 C 351.615 67.398,351.346 67.129,351.346 66.800 C 351.346 66.471,351.098 66.201,350.794 66.201 C 350.491 66.201,350.149 65.842,350.034 65.404 C 349.919 64.965,349.539 64.606,349.190 64.606 C 348.840 64.606,348.554 64.337,348.554 64.008 C 348.554 63.679,348.285 63.410,347.956 63.410 C 347.627 63.410,347.358 63.238,347.358 63.029 C 347.358 62.292,345.396 59.769,343.000 57.424 C 341.668 56.121,340.578 54.871,340.578 54.646 C 340.578 54.421,340.061 54.237,339.428 54.237 C 338.614 54.237,338.218 54.005,338.070 53.440 C 337.955 53.001,337.575 52.642,337.226 52.642 C 336.876 52.642,336.590 52.373,336.590 52.044 C 336.590 51.715,336.321 51.446,335.992 51.446 C 335.663 51.446,335.394 51.176,335.394 50.847 C 335.394 50.518,335.146 50.249,334.842 50.249 C 334.539 50.249,334.197 49.890,334.082 49.452 C 333.967 49.013,333.587 48.654,333.238 48.654 C 332.888 48.654,332.602 48.385,332.602 48.056 C 332.602 47.727,332.333 47.458,332.004 47.458 C 331.675 47.458,331.406 47.188,331.406 46.859 C 331.406 46.527,331.051 46.261,330.608 46.261 C 330.169 46.261,329.807 46.037,329.804 45.763 C 329.792 44.905,327.951 43.470,326.863 43.470 C 326.204 43.470,325.823 43.250,325.823 42.871 C 325.823 42.542,325.553 42.273,325.224 42.273 C 324.892 42.273,324.626 41.919,324.626 41.476 C 324.626 41.032,324.360 40.678,324.028 40.678 C 323.699 40.678,323.430 40.409,323.430 40.080 C 323.430 39.662,323.009 39.482,322.034 39.482 C 321.059 39.482,320.638 39.301,320.638 38.883 C 320.638 38.554,320.369 38.285,320.040 38.285 C 319.708 38.285,319.442 37.931,319.442 37.488 C 319.442 36.956,319.176 36.690,318.644 36.690 C 318.201 36.690,317.846 36.424,317.846 36.092 C 317.846 35.693,317.448 35.494,316.650 35.494 C 315.821 35.494,315.454 35.298,315.454 34.858 C 315.454 34.508,315.095 34.129,314.656 34.014 C 314.217 33.899,313.858 33.557,313.858 33.254 C 313.858 32.906,313.415 32.702,312.662 32.702 C 311.864 32.702,311.466 32.502,311.466 32.104 C 311.466 31.775,311.128 31.505,310.715 31.505 C 310.299 31.505,309.870 31.149,309.755 30.708 C 309.617 30.180,309.211 29.910,308.555 29.910 C 308.009 29.910,307.460 29.641,307.333 29.312 C 307.207 28.983,306.829 28.714,306.493 28.714 C 306.157 28.714,305.882 28.445,305.882 28.116 C 305.882 27.722,305.489 27.517,304.732 27.517 C 303.918 27.517,303.522 27.285,303.374 26.720 C 303.222 26.139,302.830 25.922,301.932 25.922 C 301.101 25.922,300.698 25.727,300.698 25.324 C 300.698 24.995,300.358 24.726,299.943 24.726 C 299.528 24.726,299.085 24.457,298.958 24.128 C 298.832 23.799,298.275 23.529,297.719 23.529 C 297.122 23.529,296.710 23.302,296.710 22.974 C 296.710 22.364,295.872 21.934,294.683 21.934 C 294.262 21.934,293.918 21.665,293.918 21.336 C 293.918 20.942,293.524 20.738,292.765 20.738 C 292.107 20.738,291.512 20.481,291.381 20.140 C 291.247 19.790,290.649 19.541,289.943 19.541 C 289.175 19.541,288.734 19.339,288.734 18.986 C 288.734 18.376,287.896 17.946,286.707 17.946 C 286.286 17.946,285.942 17.677,285.942 17.348 C 285.942 16.930,285.521 16.750,284.546 16.750 C 283.572 16.750,283.151 16.569,283.151 16.152 C 283.151 15.739,282.736 15.553,281.817 15.553 C 280.989 15.553,280.208 15.251,279.761 14.756 C 279.364 14.317,278.548 13.958,277.947 13.958 C 277.344 13.958,276.752 13.690,276.625 13.360 C 276.483 12.989,275.876 12.762,275.030 12.762 C 274.184 12.762,273.577 12.534,273.435 12.164 C 273.284 11.769,272.659 11.565,271.598 11.565 C 270.489 11.565,269.990 11.393,269.990 11.010 C 269.990 10.314,269.122 9.970,267.365 9.970 C 266.419 9.970,266.002 9.787,266.002 9.372 C 266.002 8.920,265.515 8.774,264.008 8.774 C 262.501 8.774,262.014 8.627,262.014 8.175 C 262.014 7.723,261.527 7.577,260.020 7.577 C 258.581 7.577,258.026 7.423,258.026 7.022 C 258.026 6.272,257.138 5.982,254.846 5.982 C 253.508 5.982,252.857 5.801,252.697 5.384 C 252.536 4.964,251.882 4.786,250.504 4.786 C 249.126 4.786,248.471 4.607,248.310 4.187 C 248.135 3.731,247.390 3.589,245.173 3.589 C 242.698 3.589,242.192 3.471,241.768 2.792 C 241.343 2.111,240.838 1.994,238.331 1.994 C 236.205 1.994,235.254 1.829,234.895 1.396 C 234.510 0.931,233.430 0.798,230.061 0.798 C 227.435 0.798,225.723 0.640,225.723 0.399 C 225.723 0.137,217.082 0.000,200.598 0.000 C 184.114 0.000,175.474 0.137,175.474 0.399 M96.510 122.412 C 99.691 122.831,102.798 123.365,103.416 123.601 C 104.033 123.836,104.931 124.029,105.410 124.030 C 105.889 124.032,106.795 124.301,107.423 124.629 C 108.052 124.956,108.758 125.224,108.992 125.224 C 109.936 125.224,117.281 128.822,119.884 130.560 C 124.731 133.795,125.653 134.549,129.043 138.053 C 132.279 141.398,135.992 146.263,135.992 147.158 C 135.992 147.346,136.216 147.738,136.491 148.027 C 137.873 149.489,140.772 157.040,141.592 161.316 C 141.844 162.632,142.205 164.427,142.394 165.304 C 143.284 169.441,142.828 196.264,141.826 198.723 C 140.238 202.621,138.342 204.402,134.213 205.875 C 132.384 206.527,129.865 206.580,100.994 206.580 L 69.754 206.580 68.719 207.616 L 67.683 208.651 67.900 214.495 C 68.057 218.738,68.290 220.667,68.751 221.535 C 69.101 222.193,69.388 222.918,69.389 223.146 C 69.407 226.107,78.057 234.846,81.011 234.886 C 81.370 234.891,82.178 235.163,82.806 235.491 C 84.561 236.406,94.868 236.333,97.523 235.386 C 101.713 233.892,103.975 231.834,107.750 226.082 C 111.649 220.142,113.570 220.147,122.433 226.116 C 122.762 226.338,124.568 227.551,126.447 228.813 C 133.657 233.654,133.998 234.036,133.998 237.288 C 133.998 241.893,129.254 249.435,123.525 253.938 C 120.613 256.227,116.391 258.824,115.581 258.824 C 115.270 258.824,114.805 259.033,114.549 259.289 C 114.046 259.792,112.018 260.618,109.472 261.357 C 108.594 261.612,107.680 261.947,107.440 262.102 C 107.199 262.257,106.212 262.499,105.246 262.641 C 104.280 262.782,102.502 263.183,101.296 263.531 C 97.962 264.494,81.904 264.421,77.767 263.423 C 72.015 262.037,66.093 260.071,65.311 259.289 C 65.055 259.033,64.567 258.817,64.227 258.809 C 62.716 258.772,55.664 253.958,51.105 249.850 C 47.682 246.766,43.365 240.837,41.088 236.092 C 39.273 232.312,38.684 230.862,38.684 230.179 C 38.684 229.790,38.502 229.290,38.280 229.067 C 37.823 228.611,36.801 223.433,36.281 218.943 C 35.842 215.145,35.839 171.493,36.278 167.498 C 36.740 163.290,37.825 157.828,38.291 157.362 C 38.507 157.146,38.684 156.651,38.684 156.262 C 38.684 155.438,40.712 150.831,42.672 147.202 C 45.497 141.973,53.145 133.960,58.137 130.999 C 58.515 130.775,59.541 130.133,60.419 129.572 C 62.851 128.016,68.935 125.224,69.893 125.224 C 70.249 125.224,70.646 125.055,70.773 124.849 C 70.901 124.642,71.854 124.348,72.891 124.196 C 73.927 124.044,75.224 123.743,75.773 123.529 C 79.754 121.969,89.255 121.458,96.510 122.412 M318.644 122.424 C 321.825 122.849,324.965 123.365,325.623 123.571 C 333.100 125.908,332.945 125.851,336.590 127.589 C 340.468 129.438,345.851 133.123,349.012 136.093 C 354.421 141.176,361.316 151.387,361.316 154.313 C 361.316 154.510,361.566 155.179,361.871 155.800 C 364.235 160.613,364.568 165.944,364.408 196.411 C 364.285 219.887,364.189 223.348,363.617 224.925 C 363.260 225.912,362.837 227.438,362.677 228.315 C 362.410 229.790,361.354 232.402,359.213 236.889 C 356.599 242.370,349.803 250.448,345.123 253.639 C 344.049 254.371,342.427 255.478,341.517 256.099 C 340.608 256.720,339.725 257.228,339.555 257.228 C 339.385 257.228,338.962 257.479,338.616 257.784 C 337.793 258.511,331.019 261.324,328.215 262.103 C 320.954 264.122,320.318 264.200,311.266 264.200 C 301.641 264.200,297.139 263.458,290.130 260.715 C 274.923 254.764,264.497 243.332,259.489 227.119 C 257.963 222.178,257.402 191.474,258.762 187.355 C 259.422 185.357,262.919 181.583,264.416 181.254 C 265.064 181.112,265.696 180.830,265.822 180.627 C 265.958 180.407,278.943 180.259,298.099 180.259 L 330.148 180.259 331.375 179.227 L 332.602 178.194 332.602 173.264 C 332.602 162.606,329.040 156.211,320.837 152.147 L 317.647 150.566 310.854 150.557 C 305.152 150.550,303.776 150.666,302.280 151.283 C 295.499 154.080,292.329 156.644,288.135 162.721 C 285.039 167.207,281.907 167.979,277.943 165.234 C 276.969 164.559,273.233 162.068,269.641 159.698 C 262.252 154.824,261.751 154.207,262.139 150.451 C 262.561 146.365,265.405 141.748,270.432 136.989 C 274.361 133.270,277.697 131.087,284.840 127.560 C 288.842 125.584,297.550 123.249,303.888 122.452 C 305.753 122.217,307.727 121.962,308.275 121.885 C 310.579 121.559,313.185 121.695,318.644 122.424 M238.502 125.223 C 239.280 125.439,240.536 126.255,241.294 127.037 L 242.672 128.459 242.672 138.139 L 242.672 147.819 241.603 149.220 C 239.745 151.657,237.834 151.995,226.358 151.916 C 220.943 151.879,216.467 151.915,216.411 151.996 C 214.890 154.194,214.955 152.347,214.955 193.027 C 214.955 234.091,214.927 233.413,216.706 234.590 C 216.949 234.751,221.790 234.886,227.463 234.889 C 242.629 234.898,242.473 234.762,242.473 248.007 C 242.473 262.980,247.586 261.416,198.635 261.416 L 159.322 261.416 157.867 260.303 C 155.554 258.533,155.135 256.631,155.135 247.914 C 155.135 239.347,155.549 237.720,158.190 235.926 L 159.707 234.895 170.953 234.895 L 182.199 234.895 183.024 233.737 C 183.844 232.585,183.848 232.369,183.848 193.438 C 183.848 150.955,183.900 151.982,181.744 151.918 C 181.257 151.903,176.720 151.914,171.664 151.942 C 161.248 151.999,159.124 151.576,157.129 149.051 L 156.132 147.789 156.132 138.108 L 156.132 128.428 157.573 126.986 C 158.366 126.193,159.623 125.401,160.365 125.226 C 162.378 124.751,236.792 124.748,238.502 125.223 M86.740 150.396 C 82.979 150.749,80.837 151.423,77.291 153.370 C 76.075 154.038,72.636 157.319,71.889 158.524 C 67.966 164.853,66.223 175.992,68.704 178.877 L 69.721 180.060 89.054 180.171 L 108.387 180.281 109.627 179.238 L 110.867 178.194 110.867 173.129 C 110.867 162.422,106.355 154.819,98.106 151.625 C 97.009 151.200,90.329 149.815,90.329 150.012 C 90.329 150.037,88.714 150.210,86.740 150.396 M290.356 207.739 C 287.952 211.115,289.989 222.597,293.941 227.948 C 298.982 234.770,310.286 238.308,317.938 235.457 C 323.824 233.265,330.589 227.494,330.611 224.648 C 330.612 224.471,330.879 223.818,331.203 223.196 C 332.837 220.063,333.150 208.256,331.629 207.146 C 330.985 206.676,327.507 206.580,311.018 206.580 L 291.181 206.580 290.356 207.739 " stroke="none" fill="#04acec" fill-rule="evenodd"></path></g></svg>