<svg id="Layer_1" xmlns="http://www.w3.org/2000/svg" viewBox="0 0 32 32"><style>.st0{display:none;fill:url(#SVGID_1_)}.st1{fill:url(#SVGID_2_)}.st2,.st3{opacity:.64;fill:url(#SVGID_3_);enable-background:new}.st3{fill:url(#SVGID_4_)}</style><linearGradient id="SVGID_1_" gradientUnits="userSpaceOnUse" x1="-1289.424" y1="46.375" x2="-1290.319" y2="46.375" gradientTransform="matrix(32 0 0 16 41292 -734)"><stop offset="0" stop-color="#55fbdc"/><stop offset="1" stop-color="#08f"/></linearGradient><path class="st0" d="M4 0h20c4.4 0 8 3.6 8 8s-3.6 8-8 8H0V4c0-2.2 1.8-4 4-4z"/><linearGradient id="SVGID_2_" gradientUnits="userSpaceOnUse" x1="-1289.9" y1="46.375" x2="-1290.347" y2="46.375" gradientTransform="matrix(32 0 0 16 41292 -718)"><stop offset="0" stop-color="#2ed4ff"/><stop offset=".983" stop-color="#08f"/></linearGradient><path class="st1" d="M16 32H4c-2.2 0-4-1.8-4-4V16h16"/><linearGradient id="SVGID_3_" gradientUnits="userSpaceOnUse" x1="-1248.153" y1="23.52" x2="-1248.634" y2="22.854" gradientTransform="matrix(16 0 0 32 19980 -734)"><stop offset="0" stop-color="#4f40dc" stop-opacity=".24"/><stop offset="1" stop-color="#3525d3"/></linearGradient><path class="st2" d="M16 32H4c-2.2 0-4-1.8-4-4V4c0-2.2 1.8-4 4-4h12v16"/><linearGradient id="SVGID_4_" gradientUnits="userSpaceOnUse" x1="-1248.171" y1="23.53" x2="-1248.653" y2="22.863" gradientTransform="matrix(0 16 -32 0 766.295 19980.295)"><stop offset="0" stop-color="#4f40dc" stop-opacity=".24"/><stop offset="1" stop-color="#3525d3"/></linearGradient><path class="st3" d="M0 16V4c0-2.2 1.8-4 4-4h24c2.2 0 4 1.8 4 4v12H16"/></svg>