<svg id="Layer_1" xmlns="http://www.w3.org/2000/svg" viewBox="0 0 32 32"><style>.st0{fill:url(#SVGID_1_)}.st1{fill:url(#SVGID_2_)}.st2,.st3{opacity:.64;fill:url(#SVGID_3_);enable-background:new}.st3{fill:url(#SVGID_4_)}</style><title>Blue</title><linearGradient id="SVGID_1_" gradientUnits="userSpaceOnUse" x1="-644.237" y1="377.563" x2="-645.132" y2="377.563" gradientTransform="matrix(32 0 0 -16 20646 6049)"><stop offset="0" stop-color="#55fbdc"/><stop offset="1" stop-color="#08f"/></linearGradient><path class="st0" d="M4 0h20c4.4 0 8 3.6 8 8s-3.6 8-8 8H0V4c0-2.2 1.8-4 4-4z"/><linearGradient id="SVGID_2_" gradientUnits="userSpaceOnUse" x1="-644.712" y1="377.563" x2="-645.16" y2="377.563" gradientTransform="matrix(32 0 0 -16 20646 6065)"><stop offset="0" stop-color="#2ed4ff"/><stop offset=".983" stop-color="#08f"/></linearGradient><path class="st1" d="M16 32H4c-2.2 0-4-1.8-4-4V16h16"/><linearGradient id="SVGID_3_" gradientUnits="userSpaceOnUse" x1="-623.778" y1="388.948" x2="-624.26" y2="389.615" gradientTransform="matrix(16 0 0 -32 9990 12465)"><stop offset="0" stop-color="#4f40dc" stop-opacity=".24"/><stop offset="1" stop-color="#3525d3"/></linearGradient><path class="st2" d="M16 32H4c-2.2 0-4-1.8-4-4V4c0-2.2 1.8-4 4-4h12v16"/><linearGradient id="SVGID_4_" gradientUnits="userSpaceOnUse" x1="-623.359" y1="388.759" x2="-623.506" y2="388.963" gradientTransform="matrix(16 0 0 -32 9990 12465)"><stop offset="0" stop-color="#4f40dc" stop-opacity=".24"/><stop offset="1" stop-color="#3525d3"/></linearGradient></svg>