<svg xmlns="http://www.w3.org/2000/svg" viewBox="0 0 100 37.8"><path fill="#65BEDB" d="M19 0H9.7L0 36h8l3.9-14-.4 1.8c5.4.4 17.1.5 18.8-12.6C32-1.4 19 0 19 0zm.9 15.1c-2.7 2.6-6.6 1.6-6.6 1.6l1.1-4 1.5-5.3c.5-.1 4.4-.4 5.5.4 1.3 1 .3 5.6-1.5 7.3zM54.3 2.8c-.6-1-1.6-1.8-2.7-2.2-6.8-2.3-12.5 3-16.4 8.1-3.9 5.4-6.3 11.3-6.5 18.3.2 3.9 1.2 8.3 5.2 9.9 6.6 1.6 11.4-3.9 14.8-8.5.3-.6 1.1-1.3 1.1-1.9-.3-.1-.5-.4-.9-.3-.8 1.1-1.5 2.2-2.5 3.1-2.3 2.2-5.2 3.9-8.5 3.2-3.7-1.6-3.8-5.9-3.4-9.6.3-1.4.3-2.9 1-4.2l2.5-.8c5.5-1.8 11.8-2.2 15.5-7.6 1.4-2.1 2.3-5.2.8-7.5zm-12 12.1c-7.4 2.4-5.6 1.4-5.6 1.4S42.4-.6 48.1 1.4c5.9 2 1.6 11.1-5.8 13.5zM58.5.3L82.2.2l-2 7.6-7.8.2-7.9 28h-8.7l7.6-28.1h-7.1c.1 0 2.2-7.6 2.2-7.6zM89.1.2L71.9 35.9h8.8l2.7-5.9h8.1v5.8h7.9V.2H89.1zM86.7 23l4.7-10.2v-.1 10.4h-4.7V23z"/></svg>