<svg width="400" height="398.667" xmlns="http://www.w3.org/2000/svg"><g fill-rule="evenodd"><path d="M81.954 122.426c-2.851.392-5.633.888-6.181 1.103-.549.214-1.846.515-2.882.667-1.037.152-1.99.446-2.118.653-.127.206-.524.375-.88.375-.958 0-7.042 2.792-9.474 4.348-.878.561-1.904 1.203-2.282 1.427-4.992 2.961-12.64 10.974-15.465 16.203-1.96 3.629-3.988 8.236-3.988 9.06 0 .389-.177.884-.393 1.1-.466.466-1.551 5.928-2.013 10.136-.439 3.995-.436 47.647.003 51.445.52 4.49 1.542 9.668 1.999 10.124.222.223.404.723.404 1.112 0 .683.589 2.133 2.404 5.913 2.277 4.745 6.594 10.674 10.017 13.758 4.559 4.108 11.611 8.922 13.122 8.959.34.008.828.224 1.084.48.782.782 6.704 2.748 12.456 4.134 4.137.998 20.195 1.071 23.529.108 1.206-.348 2.984-.749 3.95-.89.966-.142 1.953-.384 2.194-.539.24-.155 1.154-.49 2.032-.745 2.546-.739 4.574-1.565 5.077-2.068.256-.256.721-.465 1.032-.465.81 0 5.032-2.597 7.944-4.886 5.729-4.503 10.473-12.045 10.473-16.65 0-3.252-.341-3.634-7.551-8.475a5965.177 5965.177 0 0 1-4.014-2.697c-8.863-5.969-10.784-5.974-14.683-.034-3.775 5.752-6.037 7.81-10.227 9.304-2.655.947-12.962 1.02-14.717.105-.628-.328-1.436-.6-1.795-.605-2.954-.04-11.604-8.779-11.622-11.74-.001-.228-.288-.953-.638-1.611-.461-.868-.694-2.797-.851-7.04l-.217-5.844 1.036-1.035 1.035-1.036h31.24c28.871 0 31.39-.053 33.219-.705 4.129-1.473 6.025-3.254 7.613-7.152 1.002-2.459 1.458-29.282.568-33.419a221.04 221.04 0 0 1-.802-3.988c-.82-4.276-3.719-11.827-5.101-13.289-.275-.289-.499-.681-.499-.869 0-.895-3.713-5.76-6.949-9.105-3.39-3.504-4.312-4.258-9.159-7.493-2.603-1.738-9.948-5.336-10.892-5.336-.234 0-.94-.268-1.569-.595-.628-.328-1.534-.597-2.013-.599-.479-.001-1.377-.194-1.994-.429-4.191-1.596-14.345-2.151-21.462-1.175m226.321-.541c-.548.077-2.522.332-4.387.567-6.338.797-15.046 3.132-19.048 5.108-7.143 3.527-10.479 5.71-14.408 9.429-5.027 4.759-7.871 9.376-8.293 13.462-.388 3.756.113 4.373 7.502 9.247 3.592 2.37 7.328 4.861 8.302 5.536 3.964 2.745 7.096 1.973 10.192-2.513 4.194-6.077 7.364-8.641 14.145-11.438 1.496-.617 2.872-.733 8.574-.726l6.793.009 3.19 1.581c8.203 4.064 11.765 10.459 11.765 21.117v4.93l-1.227 1.033-1.227 1.032h-32.049c-19.156 0-32.141.148-32.277.368-.126.203-.758.485-1.406.627-1.497.329-4.994 4.103-5.654 6.101-.69 2.091-.958 28.007-.347 33.582 2.066 18.857 16.931 35.901 35.902 41.167 7.275 2.019 7.898 2.096 16.949 2.096 9.052 0 9.688-.078 16.949-2.097 2.804-.779 9.578-3.592 10.401-4.319.346-.305.769-.556.939-.556.17 0 1.053-.508 1.962-1.129l3.606-2.46c4.68-3.191 11.476-11.269 14.09-16.75 2.141-4.487 3.197-7.099 3.464-8.574.16-.877.583-2.403.94-3.39.572-1.577.668-5.038.791-28.514.16-30.467-.173-35.798-2.537-40.611-.305-.621-.555-1.29-.555-1.487 0-2.926-6.895-13.137-12.304-18.22-3.161-2.97-8.544-6.655-12.422-8.504-3.053-1.455-4.093-1.868-6.979-2.771l-3.988-1.247c-3.266-1.021-14.398-2.103-17.348-1.686m-147.91 3.341c-.742.175-1.999.967-2.792 1.76l-1.441 1.442v19.361l.997 1.262c1.995 2.525 4.119 2.948 14.535 2.891 5.056-.028 9.593-.039 10.08-.024 2.156.064 2.104-.963 2.104 41.52 0 38.931-.004 39.147-.824 40.299l-.825 1.158h-22.492l-1.517 1.031c-2.641 1.794-3.055 3.421-3.055 11.988 0 8.717.419 10.619 2.732 12.389l1.455 1.113h39.313c48.951 0 43.838 1.564 43.838-13.409 0-13.245.156-13.109-15.01-13.118-5.673-.003-10.514-.138-10.757-.299-1.779-1.177-1.751-.499-1.751-41.563 0-40.68-.065-38.833 1.456-41.031.056-.081 4.532-.117 9.947-.08 11.476.079 13.387-.259 15.245-2.696l1.069-1.401v-19.36l-1.378-1.422c-.758-.782-2.014-1.598-2.792-1.814-1.71-.475-76.124-.472-78.137.003m-66.846 25.299c11.334 1.987 17.348 9.824 17.348 22.604v5.065l-1.24 1.044-1.24 1.043-19.333-.11-19.333-.111-1.017-1.183c-2.481-2.885-.738-14.024 3.185-20.353.747-1.205 4.186-4.486 5.402-5.154 3.546-1.947 5.688-2.621 9.449-2.974 1.974-.186 3.589-.359 3.589-.384 0-.025 1.436.206 3.19.513m238.11 56.621c1.521 1.11 1.208 12.917-.426 16.05-.324.622-.591 1.275-.592 1.452-.002.177-.712 1.365-1.578 2.64-7.988 11.763-26.63 12.114-35.092.66-3.952-5.351-5.989-16.833-3.585-20.209l.825-1.159h19.837c16.489 0 19.967.096 20.611.566" fill="#fbfbfc"/><path d="M175.474.399c0 .242-1.77.399-4.51.399-3.349 0-4.71.15-5.285.585-.493.374-1.726.59-3.404.598-2.113.011-2.772.17-3.352.811-.578.638-1.228.797-3.265.797-1.892 0-2.601.153-2.772.598-.168.439-.86.599-2.592.599-1.732 0-2.424.159-2.592.598-.16.415-.808.598-2.12.598-1.383 0-2.083.214-2.611.798-.528.583-1.228.797-2.611.797-1.312 0-1.96.183-2.119.598-.13.338-.724.599-1.363.599-.623 0-1.481.263-1.906.585-.426.322-1.33.591-2.009.598-.715.008-1.538.349-1.956.811-.448.494-1.228.797-2.056.797-.92 0-1.334.186-1.334.599 0 .428-.438.598-1.546.598-.888 0-1.758.254-2.043.598-.273.329-1.03.598-1.681.598-.85 0-1.244.226-1.394.798-.157.599-.544.797-1.558.797-.933 0-1.349.185-1.349.599 0 .418-.422.598-1.408.598-.884 0-1.494.222-1.638.598-.127.329-.632.598-1.122.598-.491 0-1.218.359-1.615.798-.397.438-1.053.797-1.457.797-.405 0-.736.27-.736.599 0 .401-.402.598-1.225.598-.674 0-1.494.269-1.823.598-.329.329-.945.598-1.368.598-.503 0-.769.276-.769.798 0 .645-.266.797-1.395.797-.975 0-1.396.181-1.396.599 0 .4-.4.598-1.209.598-.684 0-1.305.249-1.429.574-.121.315-.744.688-1.384.829-.639.14-1.163.51-1.163.822 0 .312-.359.566-.797.566-.443 0-.798.266-.798.599 0 .398-.399.598-1.196.598-.798 0-1.197.199-1.197.598 0 .329-.286.598-.635.598-.35 0-.73.359-.844.798-.148.565-.544.797-1.359.797-.756 0-1.15.205-1.15.599 0 .332-.354.598-.797.598-.444 0-.798.266-.798.598 0 .378-.381.598-1.034.598-.699 0-1.102.259-1.243.798-.116.441-.544.798-.96.798-.413 0-.751.269-.751.598 0 .371-.376.598-.994.598-.561 0-1.21.347-1.491.798-.274.438-.725.797-1.001.797-.276 0-.502.269-.502.598a.6.6 0 0 1-.598.599.6.6 0 0 0-.598.598c0 .371-.377.598-.994.598-.562 0-1.21.347-1.492.798-.274.438-.724.797-1 .797-.277 0-.503.269-.503.598 0 .333-.354.599-.797.599-.443 0-.798.265-.798.598a.6.6 0 0 1-.598.598c-.332 0-.598.354-.598.798 0 .558-.27.801-.897.808-.494.006-1.421.545-2.061 1.197-.64.652-1.402 1.185-1.695 1.185-.292 0-.532.359-.532.798 0 .531-.265.797-.797.797-.443 0-.798.266-.798.598a.6.6 0 0 1-.598.599.6.6 0 0 0-.598.598.6.6 0 0 1-.598.598c-.333 0-.599.355-.599.798 0 .531-.266.797-.797.797-.443 0-.798.266-.798.598a.6.6 0 0 1-.598.599.6.6 0 0 0-.598.598.6.6 0 0 1-.598.598c-.333 0-.599.355-.599.798 0 .531-.266.797-.797.797-.443 0-.798.266-.798.599a.6.6 0 0 1-.598.598.6.6 0 0 0-.598.598.6.6 0 0 1-.599.598c-.332 0-.598.355-.598.798 0 .531-.266.797-.797.797-.443 0-.798.266-.798.599a.6.6 0 0 1-.598.598c-.329 0-.598.25-.598.555 0 .306-.27.659-.599.785-.329.127-.598.505-.598.841 0 .345-.347.61-.797.61-.451 0-.798.266-.798.611 0 .336-.269.714-.598.84-.341.131-.598.726-.598 1.384 0 .759-.205 1.153-.599 1.153a.6.6 0 0 0-.598.599c0 .332-.354.598-.797.598-.444 0-.798.266-.798.598a.6.6 0 0 1-.598.598c-.333 0-.598.355-.598.798 0 .443-.266.797-.599.797-.329 0-.598.23-.598.51s-.359.817-.797 1.193c-.439.375-.798 1.043-.798 1.484 0 .447-.265.802-.598.802a.6.6 0 0 0-.598.598.606.606 0 0 1-.611.598c-.336 0-.73.314-.875.698a4.217 4.217 0 0 1-.785 1.225c-.287.29-.521.873-.521 1.296 0 .423-.269.769-.598.769-.329 0-.598.338-.598.751 0 .416-.357.844-.798.96-.539.141-.798.544-.798 1.243 0 .653-.22 1.034-.598 1.034-.332 0-.598.354-.598.798 0 .443-.266.797-.598.797-.399 0-.599.399-.599 1.197 0 .808-.198 1.196-.61 1.196-.336 0-.73.314-.875.698a4.217 4.217 0 0 1-.785 1.225c-.287.29-.521.854-.521 1.253 0 .4-.269.83-.598.956-.35.134-.599.732-.599 1.439 0 .943-.175 1.209-.797 1.209-.517 0-.798.266-.798.755 0 .415-.269.858-.598.984-.329.126-.598.684-.598 1.239 0 .632-.224 1.01-.598 1.01-.414 0-.599.416-.599 1.349 0 1.014-.198 1.401-.797 1.558-.528.138-.798.544-.798 1.2 0 .546-.269 1.095-.598 1.221-.35.135-.598.732-.598 1.439 0 .809-.198 1.209-.598 1.209-.414 0-.599.416-.599 1.349 0 1.014-.198 1.401-.797 1.558-.581.152-.798.544-.798 1.442 0 .831-.195 1.234-.598 1.234-.394 0-.598.394-.598 1.154 0 .657-.257 1.252-.598 1.383-.347.133-.599.73-.599 1.419 0 .666-.275 1.343-.627 1.54-.345.193-.727 1.099-.85 2.014-.138 1.032-.43 1.663-.769 1.663-.389 0-.545.572-.545 1.994 0 1.506-.147 1.994-.598 1.994-.414 0-.599.415-.599 1.349 0 1.014-.198 1.401-.797 1.558-.648.169-.798.544-.798 1.998 0 1.222-.189 1.862-.598 2.018-.41.158-.598.799-.598 2.037 0 1.341-.155 1.807-.599 1.807-.469 0-.598.549-.598 2.546 0 2.21-.105 2.573-.797 2.754-.663.174-.798.544-.798 2.191 0 1.276-.213 2.16-.598 2.479-.398.33-.598 1.225-.598 2.67 0 1.4-.213 2.386-.599 2.771-.437.437-.598 1.504-.598 3.96 0 3.095-.063 3.361-.797 3.361-.73 0-.798.266-.798 3.142 0 2.306-.159 3.273-.598 3.638-.481.399-.598 1.62-.598 6.23 0 3.557-.152 5.734-.399 5.734-.26 0-.399 6.447-.399 18.544 0 12.097.139 18.545.399 18.545.247 0 .399 2.197.399 5.795 0 4.783.104 5.835.598 6.024.462.178.598.952.598 3.415 0 2.85.084 3.207.798 3.394.71.186.797.544.797 3.276 0 2.08.189 3.317.586 3.842.334.442.591 1.659.598 2.839.008 1.29.237 2.29.611 2.664.374.374.598 1.354.598 2.62 0 1.757.105 2.023.798 2.023.715 0 .797.266.797 2.592 0 2.038.128 2.592.598 2.592.444 0 .599.467.599 1.807 0 1.239.188 1.88.598 2.037.416.16.598.809.598 2.135 0 1.569.141 1.941.798 2.113.58.152.797.544.797 1.442 0 .831.196 1.234.599 1.234.451 0 .598.487.598 1.994 0 1.507.146 1.994.598 1.994.418 0 .598.421.598 1.396 0 .864.304 1.7.798 2.193.443.443.797 1.33.797 1.994 0 .798.2 1.197.599 1.197.4 0 .598.4.598 1.209 0 .706.248 1.304.598 1.438.341.131.598.726.598 1.383 0 .888.184 1.154.798 1.154.645 0 .797.266.797 1.396 0 .975.181 1.396.599 1.396.417 0 .598.421.598 1.396 0 .974.18 1.395.598 1.395.378 0 .598.381.598 1.035 0 .699.259 1.102.798 1.243.599.156.797.544.797 1.558 0 .933.185 1.349.599 1.349.394 0 .598.394.598 1.154 0 .657.257 1.252.598 1.383.329.126.598.504.598.84 0 .345.347.611.798.611.646 0 .797.266.797 1.396 0 .975.181 1.396.599 1.396.369 0 .598.374.598.976 0 1.016 1.55 3.012 2.339 3.012.249 0 .452.544.452 1.208 0 .707.249 1.305.599 1.439.329.126.598.48.598.785 0 .306.269.556.598.556.372 0 .598.376.598.993 0 .562.347 1.21.798 1.492.439.274.798.724.798 1 0 .277.269.503.598.503.374 0 .598.378.598 1.009 0 .555.269 1.113.598 1.239.329.126.598.497.598.823 0 .326.359.686.798.801.439.115.798.457.798.76 0 .304.269.552.598.552.403 0 .598.403.598 1.234 0 .898.217 1.29.798 1.442.438.115.797.457.797.76 0 .304.269.552.598.552.333 0 .599.355.599.798 0 .443.265.797.598.797a.6.6 0 0 1 .598.599c0 .332.354.598.798.598.587 0 .797.266.797 1.009 0 .556.269 1.113.598 1.239.329.127.599.486.599.798 0 .312.269.671.598.798.329.126.598.479.598.785 0 .305.359.555.798.555.531 0 .797.266.797.798 0 .443.266.797.598.797.329 0 .599.27.599.599a.6.6 0 0 0 .598.598.6.6 0 0 1 .598.598c0 .332.355.598.798.598.531 0 .797.266.797.798 0 .443.266.797.598.797a.6.6 0 0 1 .599.599.6.6 0 0 0 .598.598c.329 0 .598.286.598.635 0 .35.359.73.798.845.438.114.797.456.797.76 0 .303.27.551.599.551a.6.6 0 0 1 .598.599.6.6 0 0 0 .598.598c.329 0 .598.286.598.635 0 .35.359.73.798.845.438.114.797.456.797.76 0 .303.27.552.599.552a.6.6 0 0 1 .598.598.6.6 0 0 0 .598.598c.329 0 .598.286.598.635 0 .35.359.73.798.845.438.114.797.456.797.76 0 .303.27.552.599.552a.6.6 0 0 1 .598.598c0 .332.354.598.797.598.439 0 .798.255.798.566 0 .312.538.685 1.196.83.658.144 1.197.517 1.197.829 0 .312.269.567.598.567a.6.6 0 0 1 .598.598c0 .332.355.598.798.598.439 0 .801.224.804.499.012.857 1.853 2.293 2.941 2.293.659 0 1.041.219 1.041.598a.6.6 0 0 0 .598.598c.329 0 .601.224.605.499.012.857 1.852 2.293 2.94 2.293.659 0 1.041.219 1.041.598 0 .332.354.598.798.598.531 0 .797.266.797.798 0 .514.266.797.749.797.412 0 .972.269 1.245.598.273.33.834.599 1.245.599.412 0 .749.269.749.598 0 .329.23.598.51.598s.817.359 1.192.798c.376.438 1.044.797 1.485.797.446 0 .801.265.801.599 0 .398.399.598 1.197.598.797 0 1.196.199 1.196.598 0 .329.338.598.751.598.416 0 .844.356.96.798.138.528.544.797 1.2.797.546 0 1.095.27 1.221.599.135.349.732.598 1.439.598.809 0 1.209.198 1.209.598 0 .329.331.598.736.598.404 0 1.06.359 1.457.798.397.438.944.797 1.216.797.271 0 .597.27.723.599.126.329.684.598 1.239.598s1.368.359 1.807.797c.439.439 1.08.798 1.424.798.345 0 .896.269 1.225.598.329.329 1.012.598 1.518.598s1.143.27 1.416.599c.273.329 1.082.598 1.797.598.965 0 1.355.206 1.509.797.152.581.544.798 1.443.798.831 0 1.233.195 1.233.598 0 .418.421.598 1.396.598.975 0 1.396.181 1.396.599 0 .45.482.598 1.948.598 1.612 0 1.983.137 2.156.797.15.575.544.798 1.409.798.66 0 1.264.191 1.342.425.078.233.916.528 1.862.655.947.127 1.814.474 1.929.772.127.332.829.541 1.815.541 1.015 0 1.781.236 2.076.639.261.357 1.288.731 2.33.848 1.025.116 2.068.457 2.318.757.282.34 1.268.548 2.599.548 1.64 0 2.144.14 2.144.598 0 .47.554.598 2.593.598 1.949 0 2.592.138 2.592.555 0 .756.89 1.04 3.251 1.04 1.237 0 2.217.226 2.588.598.418.418 1.439.599 3.374.599 2.1 0 2.832.145 3.005.598.187.485 1.125.598 4.973.598 2.896 0 4.743.155 4.743.399 0 .262 8.774.399 25.523.399 16.75 0 25.524-.137 25.524-.399 0-.243 1.799-.399 4.599-.399 3.719 0 4.642-.114 4.828-.598.177-.462.948-.598 3.39-.598 2.441 0 3.212-.137 3.39-.599.166-.433.851-.599 2.48-.603 2.803-.007 4.045-.326 4.045-1.038 0-.402.584-.552 2.144-.552 1.42 0 2.313-.202 2.641-.598.318-.383 1.201-.598 2.454-.598 1.373 0 2.027-.179 2.188-.599.157-.408.796-.598 2.019-.598 1.453 0 1.828-.149 1.997-.797.173-.661.544-.798 2.156-.798 1.466 0 1.948-.148 1.948-.598 0-.444.467-.599 1.807-.599 1.239 0 1.879-.188 2.037-.598.141-.369.748-.598 1.583-.598.821 0 1.666-.313 2.15-.798.443-.443 1.33-.797 1.994-.797.747 0 1.197-.205 1.197-.546 0-.34.635-.631 1.686-.772.928-.124 1.75-.417 1.828-.65.078-.234.471-.425.873-.425 1.158 0 1.994-.436 1.994-1.04 0-.369.468-.555 1.395-.555.975 0 1.396-.181 1.396-.598 0-.401.4-.599 1.209-.599.707 0 1.304-.248 1.439-.598.126-.329.657-.598 1.18-.598.523 0 1.175-.359 1.449-.798.303-.484.93-.797 1.599-.797.712 0 1.1-.211 1.1-.598 0-.403.403-.599 1.234-.599.898 0 1.29-.216 1.442-.797.148-.565.544-.798 1.359-.798.756 0 1.15-.205 1.15-.598 0-.329.337-.598.748-.598.412 0 .973-.269 1.246-.598.273-.329.85-.599 1.282-.599.451 0 .875-.34.995-.797.148-.565.544-.798 1.358-.798.757 0 1.15-.205 1.15-.598 0-.332.355-.598.798-.598.443 0 .798-.266.798-.598 0-.399.398-.599 1.196-.599.931 0 1.196-.177 1.196-.797 0-.532.266-.798.798-.798.443 0 .798-.266.798-.598 0-.399.398-.598 1.196-.598.798 0 1.196-.2 1.196-.599 0-.332.355-.598.798-.598.532 0 .798-.266.798-.797 0-.621.266-.798 1.196-.798.798 0 1.196-.199 1.196-.598 0-.332.355-.598.798-.598.443 0 .798-.266.798-.599a.6.6 0 0 1 .598-.598c.329 0 .957-.359 1.396-.797.438-.439 1.066-.798 1.396-.798a.6.6 0 0 0 .598-.598.6.6 0 0 1 .598-.598.6.6 0 0 0 .598-.599.6.6 0 0 1 .598-.598c.333 0 .599-.354.599-.797 0-.623.265-.798 1.208-.798.707 0 1.305-.249 1.439-.598.126-.329.479-.598.785-.598a.556.556 0 0 0 .556-.552c0-.304.358-.646.797-.76.439-.115.798-.495.798-.844 0-.35.269-.636.598-.636a.6.6 0 0 0 .598-.598c0-.333.355-.598.798-.598.443 0 .797-.266.797-.599a.6.6 0 0 1 .599-.598c.332 0 .598-.354.598-.797 0-.439.233-.798.517-.798.566 0 1.999-.998 3.007-2.094.352-.384.87-.698 1.151-.698.28 0 .509-.172.509-.383 0-.488 3.131-3.605 3.621-3.605.202 0 .367-.188.367-.418 0-.486 1.949-2.373 2.451-2.373.188 0 .341-.539.341-1.197 0-.797.199-1.196.598-1.196a.6.6 0 0 0 .598-.598c0-.333.355-.599.798-.599.532 0 .798-.265.798-.797 0-.443.265-.798.598-.798a.6.6 0 0 0 .598-.598.6.6 0 0 1 .598-.598c.329 0 .598-.248.598-.552 0-.303.359-.645.798-.76.439-.115.798-.495.798-.844 0-.35.269-.636.598-.636a.6.6 0 0 0 .598-.598.6.6 0 0 1 .598-.598c.418 0 .598-.421.598-1.396 0-1.13.152-1.396.798-1.396.443 0 .798-.266.798-.598a.6.6 0 0 1 .598-.598c.329 0 .598-.25.598-.556 0-.305.269-.659.598-.785.329-.126.598-.554.598-.952 0-.397.359-.98.798-1.297.439-.316.798-.804.798-1.085 0-.28.269-.51.598-.51.332 0 .598-.354.598-.797 0-.443.266-.798.598-.798.399 0 .598-.399.598-1.196 0-.931.178-1.197.798-1.197.532 0 .798-.266.798-.797 0-.443.266-.798.598-.798.399 0 .598-.399.598-1.196 0-.798.2-1.197.598-1.197.333 0 .599-.354.599-.797 0-.532.265-.798.797-.798.62 0 .798-.266.798-1.196 0-.798.199-1.197.598-1.197.332 0 .598-.354.598-.797 0-.444.266-.798.598-.798.394 0 .599-.394.599-1.15 0-.814.232-1.211.797-1.358.581-.152.798-.544.798-1.443 0-.831.195-1.234.598-1.234.332 0 .598-.354.598-.797 0-.443.266-.798.598-.798.394 0 .599-.393.599-1.15 0-.814.232-1.21.797-1.358.581-.152.798-.544.798-1.442 0-.831.195-1.234.598-1.234.414 0 .598-.416.598-1.349 0-1.014.198-1.402.798-1.558.528-.138.797-.544.797-1.201 0-.545.27-1.095.599-1.221.349-.134.598-.732.598-1.438 0-.809.198-1.209.598-1.209.418 0 .598-.421.598-1.396 0-.967.182-1.396.591-1.396.325 0 .695-.493.824-1.097.128-.603.49-1.573.805-2.155.314-.582.572-1.505.572-2.051 0-.546.269-1.096.598-1.222.368-.141.598-.747.598-1.576 0-.84.3-1.618.798-2.068.439-.397.797-1.214.797-1.814 0-.603.269-1.195.599-1.322.41-.157.598-.798.598-2.036 0-1.341.154-1.807.598-1.807.452 0 .598-.488.598-1.994 0-1.439.155-1.994.556-1.994.691 0 1.04-.867 1.04-2.583 0-.806.233-1.41.598-1.55.447-.171.598-.887.598-2.834 0-2.049.127-2.605.598-2.605.469 0 .598-.548.598-2.545 0-2.211.105-2.574.798-2.755.689-.18.798-.544.798-2.667 0-1.654.195-2.654.598-3.057.415-.415.598-1.432.598-3.318 0-2.051.147-2.778.598-2.951.49-.187.598-1.174.598-5.426 0-3.199.154-5.197.399-5.197.262 0 .399-8.242.399-23.928s-.137-23.928-.399-23.928c-.244 0-.399-1.932-.399-4.998 0-4.074-.11-5.04-.598-5.227-.456-.175-.598-.92-.598-3.129 0-2.091-.167-3.038-.598-3.396-.394-.327-.598-1.218-.598-2.609 0-2.48-.276-3.373-1.04-3.373-.418 0-.556-.643-.556-2.592 0-2.039-.127-2.593-.598-2.593-.465 0-.598-.533-.598-2.405 0-1.77-.158-2.466-.598-2.635-.406-.156-.598-.792-.598-1.978 0-1.317-.197-1.872-.798-2.247-.596-.372-.798-.93-.798-2.209 0-1.153-.195-1.786-.598-1.941-.403-.154-.598-.787-.598-1.939 0-1.151-.195-1.784-.598-1.938-.35-.135-.599-.732-.599-1.439 0-.943-.175-1.209-.797-1.209-.691 0-.798-.266-.798-1.994 0-1.506-.146-1.994-.598-1.994-.41 0-.598-.411-.598-1.307 0-.719-.246-1.661-.547-2.094-.301-.432-.675-1.37-.83-2.082-.157-.722-.533-1.297-.848-1.297-.382 0-.567-.455-.567-1.395 0-.975-.18-1.396-.598-1.396-.4 0-.598-.4-.598-1.209 0-.707-.249-1.304-.598-1.439-.329-.126-.599-.675-.599-1.221 0-.656-.269-1.062-.797-1.2-.6-.157-.798-.544-.798-1.558 0-.933-.184-1.349-.598-1.349-.396 0-.598-.396-.598-1.17 0-.819-.239-1.245-.798-1.422-.559-.178-.797-.604-.797-1.423 0-.774-.203-1.17-.599-1.17-.332 0-.598-.354-.598-.797 0-.443-.266-.798-.598-.798-.399 0-.598-.399-.598-1.196 0-.931-.177-1.197-.798-1.197-.646 0-.797-.266-.797-1.396 0-.974-.181-1.395-.599-1.395a.6.6 0 0 1-.598-.599.6.6 0 0 0-.598-.598c-.418 0-.598-.421-.598-1.396 0-1.13-.152-1.395-.798-1.395-.443 0-.797-.266-.797-.599a.6.6 0 0 0-.599-.598c-.417 0-.598-.421-.598-1.396 0-.974-.18-1.395-.598-1.395a.6.6 0 0 1-.598-.599c0-.332-.355-.598-.798-.598-.646 0-.798-.266-.798-1.396 0-.975-.18-1.395-.598-1.395a.6.6 0 0 1-.598-.599.6.6 0 0 0-.598-.598c-.329 0-.598-.319-.598-.709 0-.391-.359-.969-.798-1.285-.439-.316-.798-.894-.798-1.284 0-.391-.269-.71-.598-.71-.332 0-.598-.354-.598-.798 0-.443-.266-.797-.598-.797a.6.6 0 0 1-.598-.598c0-.333-.355-.599-.798-.599-.614 0-.798-.265-.798-1.153 0-.658-.257-1.253-.598-1.384-.329-.126-.598-.504-.598-.84 0-.336-.248-.611-.552-.611-.303 0-.645-.358-.76-.797-.115-.439-.495-.798-.844-.798-.35 0-.636-.269-.636-.598a.6.6 0 0 0-.598-.598.6.6 0 0 1-.598-.598c0-.329-.248-.599-.552-.599-.303 0-.645-.359-.76-.797-.115-.439-.495-.798-.844-.798-.35 0-.636-.269-.636-.598a.6.6 0 0 0-.598-.598c-.329 0-.598-.172-.598-.381 0-.737-1.962-3.26-4.358-5.605-1.332-1.303-2.422-2.553-2.422-2.778 0-.225-.517-.409-1.15-.409-.814 0-1.21-.232-1.358-.797-.115-.439-.495-.798-.844-.798-.35 0-.636-.269-.636-.598a.6.6 0 0 0-.598-.598.6.6 0 0 1-.598-.599c0-.329-.248-.598-.552-.598-.303 0-.645-.359-.76-.797-.115-.439-.495-.798-.844-.798-.35 0-.636-.269-.636-.598a.6.6 0 0 0-.598-.598.6.6 0 0 1-.598-.599c0-.332-.355-.598-.798-.598-.439 0-.801-.224-.804-.498-.012-.858-1.853-2.293-2.941-2.293-.659 0-1.04-.22-1.04-.599a.6.6 0 0 0-.599-.598c-.332 0-.598-.354-.598-.797 0-.444-.266-.798-.598-.798a.6.6 0 0 1-.598-.598c0-.418-.421-.598-1.396-.598-.975 0-1.396-.181-1.396-.599a.6.6 0 0 0-.598-.598c-.332 0-.598-.354-.598-.797 0-.532-.266-.798-.798-.798-.443 0-.798-.266-.798-.598 0-.399-.398-.598-1.196-.598-.829 0-1.196-.196-1.196-.636 0-.35-.359-.729-.798-.844-.439-.115-.798-.457-.798-.76 0-.348-.443-.552-1.196-.552-.798 0-1.196-.2-1.196-.598 0-.329-.338-.599-.751-.599-.416 0-.845-.356-.96-.797-.138-.528-.544-.798-1.2-.798-.546 0-1.095-.269-1.222-.598-.126-.329-.504-.598-.84-.598a.606.606 0 0 1-.611-.598c0-.394-.393-.599-1.15-.599-.814 0-1.21-.232-1.358-.797-.152-.581-.544-.798-1.442-.798-.831 0-1.234-.195-1.234-.598 0-.329-.34-.598-.755-.598s-.858-.269-.985-.598c-.126-.329-.683-.599-1.239-.599-.597 0-1.009-.227-1.009-.555 0-.61-.838-1.04-2.027-1.04-.421 0-.765-.269-.765-.598 0-.394-.394-.598-1.153-.598-.658 0-1.253-.257-1.384-.598-.134-.35-.732-.599-1.438-.599-.768 0-1.209-.202-1.209-.555 0-.61-.838-1.04-2.027-1.04-.421 0-.765-.269-.765-.598 0-.418-.421-.598-1.396-.598-.974 0-1.395-.181-1.395-.598 0-.413-.415-.599-1.334-.599-.828 0-1.609-.302-2.056-.797-.397-.439-1.213-.798-1.814-.798-.603 0-1.195-.268-1.322-.598-.142-.371-.749-.598-1.595-.598s-1.453-.228-1.595-.598c-.151-.395-.776-.599-1.837-.599-1.109 0-1.608-.172-1.608-.555 0-.696-.868-1.04-2.625-1.04-.946 0-1.363-.183-1.363-.598 0-.452-.487-.598-1.994-.598-1.507 0-1.994-.147-1.994-.599 0-.452-.487-.598-1.994-.598-1.439 0-1.994-.154-1.994-.555 0-.75-.888-1.04-3.18-1.04-1.338 0-1.989-.181-2.149-.598-.161-.42-.815-.598-2.193-.598-1.378 0-2.033-.179-2.194-.599-.175-.456-.92-.598-3.137-.598-2.475 0-2.981-.118-3.405-.797-.425-.681-.93-.798-3.437-.798-2.126 0-3.077-.165-3.436-.598-.385-.465-1.465-.598-4.834-.598-2.626 0-4.338-.158-4.338-.399 0-.262-8.641-.399-25.125-.399s-25.124.137-25.124.399M96.51 122.412c3.181.419 6.288.953 6.906 1.189.617.235 1.515.428 1.994.429.479.002 1.385.271 2.013.599.629.327 1.335.595 1.569.595.944 0 8.289 3.598 10.892 5.336 4.847 3.235 5.769 3.989 9.159 7.493 3.236 3.345 6.949 8.21 6.949 9.105 0 .188.224.58.499.869 1.382 1.462 4.281 9.013 5.101 13.289.252 1.316.613 3.111.802 3.988.89 4.137.434 30.96-.568 33.419-1.588 3.898-3.484 5.679-7.613 7.152-1.829.652-4.348.705-33.219.705h-31.24l-1.035 1.036-1.036 1.035.217 5.844c.157 4.243.39 6.172.851 7.04.35.658.637 1.383.638 1.611.018 2.961 8.668 11.7 11.622 11.74.359.005 1.167.277 1.795.605 1.755.915 12.062.842 14.717-.105 4.19-1.494 6.452-3.552 10.227-9.304 3.899-5.94 5.82-5.935 14.683.034l4.014 2.697c7.21 4.841 7.551 5.223 7.551 8.475 0 4.605-4.744 12.147-10.473 16.65-2.912 2.289-7.134 4.886-7.944 4.886-.311 0-.776.209-1.032.465-.503.503-2.531 1.329-5.077 2.068-.878.255-1.792.59-2.032.745-.241.155-1.228.397-2.194.539-.966.141-2.744.542-3.95.89-3.334.963-19.392.89-23.529-.108-5.752-1.386-11.674-3.352-12.456-4.134-.256-.256-.744-.472-1.084-.48-1.511-.037-8.563-4.851-13.122-8.959-3.423-3.084-7.74-9.013-10.017-13.758-1.815-3.78-2.404-5.23-2.404-5.913 0-.389-.182-.889-.404-1.112-.457-.456-1.479-5.634-1.999-10.124-.439-3.798-.442-47.45-.003-51.445.462-4.208 1.547-9.67 2.013-10.136.216-.216.393-.711.393-1.1 0-.824 2.028-5.431 3.988-9.06 2.825-5.229 10.473-13.242 15.465-16.203.378-.224 1.404-.866 2.282-1.427 2.432-1.556 8.516-4.348 9.474-4.348.356 0 .753-.169.88-.375.128-.207 1.081-.501 2.118-.653 1.036-.152 2.333-.453 2.882-.667 3.981-1.56 13.482-2.071 20.737-1.117m222.134.012c3.181.425 6.321.941 6.979 1.147 7.477 2.337 7.322 2.28 10.967 4.018 3.878 1.849 9.261 5.534 12.422 8.504 5.409 5.083 12.304 15.294 12.304 18.22 0 .197.25.866.555 1.487 2.364 4.813 2.697 10.144 2.537 40.611-.123 23.476-.219 26.937-.791 28.514-.357.987-.78 2.513-.94 3.39-.267 1.475-1.323 4.087-3.464 8.574-2.614 5.481-9.41 13.559-14.09 16.75l-3.606 2.46c-.909.621-1.792 1.129-1.962 1.129-.17 0-.593.251-.939.556-.823.727-7.597 3.54-10.401 4.319-7.261 2.019-7.897 2.097-16.949 2.097-9.625 0-14.127-.742-21.136-3.485-15.207-5.951-25.633-17.383-30.641-33.596-1.526-4.941-2.087-35.645-.727-39.764.66-1.998 4.157-5.772 5.654-6.101.648-.142 1.28-.424 1.406-.627.136-.22 13.121-.368 32.277-.368h32.049l1.227-1.032 1.227-1.033v-4.93c0-10.658-3.562-17.053-11.765-21.117l-3.19-1.581-6.793-.009c-5.702-.007-7.078.109-8.574.726-6.781 2.797-9.951 5.361-14.145 11.438-3.096 4.486-6.228 5.258-10.192 2.513-.974-.675-4.71-3.166-8.302-5.536-7.389-4.874-7.89-5.491-7.502-9.247.422-4.086 3.266-8.703 8.293-13.462 3.929-3.719 7.265-5.902 14.408-9.429 4.002-1.976 12.71-4.311 19.048-5.108 1.865-.235 3.839-.49 4.387-.567 2.304-.326 4.91-.19 10.369.539m-80.142 2.799c.778.216 2.034 1.032 2.792 1.814l1.378 1.422v19.36l-1.069 1.401c-1.858 2.437-3.769 2.775-15.245 2.696-5.415-.037-9.891-.001-9.947.08-1.521 2.198-1.456.351-1.456 41.031 0 41.064-.028 40.386 1.751 41.563.243.161 5.084.296 10.757.299 15.166.009 15.01-.127 15.01 13.118 0 14.973 5.113 13.409-43.838 13.409h-39.313l-1.455-1.113c-2.313-1.77-2.732-3.672-2.732-12.389 0-8.567.414-10.194 3.055-11.988l1.517-1.031h22.492l.825-1.158c.82-1.152.824-1.368.824-40.299 0-42.483.052-41.456-2.104-41.52-.487-.015-5.024-.004-10.08.024-10.416.057-12.54-.366-14.535-2.891l-.997-1.262v-19.361l1.441-1.442c.793-.793 2.05-1.585 2.792-1.76 2.013-.475 76.427-.478 78.137-.003M86.74 150.396c-3.761.353-5.903 1.027-9.449 2.974-1.216.668-4.655 3.949-5.402 5.154-3.923 6.329-5.666 17.468-3.185 20.353l1.017 1.183 19.333.111 19.333.11 1.24-1.043 1.24-1.044v-5.065c0-10.707-4.512-18.31-12.761-21.504-1.097-.425-7.777-1.81-7.777-1.613 0 .025-1.615.198-3.589.384m203.616 57.343c-2.404 3.376-.367 14.858 3.585 20.209 5.041 6.822 16.345 10.36 23.997 7.509 5.886-2.192 12.651-7.963 12.673-10.809.001-.177.268-.83.592-1.452 1.634-3.133 1.947-14.94.426-16.05-.644-.47-4.122-.566-20.611-.566h-19.837l-.825 1.159" fill="#04acec"/></g></svg>