<?xml version="1.0" encoding="UTF-8" standalone="no"?>
<svg
    xmlns:rdf="http://www.w3.org/1999/02/22-rdf-syntax-ns#"
    xmlns="http://www.w3.org/2000/svg"
    xml:space="preserve"
    height="47.016"
    viewBox="144 0 188.41362 47.016108"
    width="188.41"
    version="1.1"
    xmlns:cc="http://creativecommons.org/ns#"
    xmlns:dc="http://purl.org/dc/elements/1.1/">
    <g transform="matrix(1.25 0 0 -1.25 -279.62 519.24)"><g transform="matrix(.25 0 0 .25 224.45 297.78)">
    <path
    xmlns="http://www.w3.org/2000/svg"
    d="m665.44 0c-6.8502 0-12.295 3.8254-12.295 8.4824l4.1602 47.107c0.45925 2.8381 3.9358 5.0273 8.1387 5.0273 4.2112-0.0055 7.6756-2.1928 8.1445-5.0273l4.18-47.107c0-4.6566-5.46-8.482-12.32-8.482zm-67.795 37.787c-3.5563 0.08438-7.5962 2.7769-10.166 7.2324-3.4368 5.9329-2.8278 12.563 1.1934 14.889l42.871 19.965c2.6782 0.99612 6.3156-0.90582 8.4219-4.5371 0.0003-0.000503-0.00029-0.0015 0-0.002 2.1161-3.6492 1.9523-7.7523-0.27539-9.5723l-38.72-27.158c-1.0056-0.58244-2.1368-0.84453-3.3223-0.81641zm135.59 0c-1.1852-0.02813-2.3147 0.23397-3.3184 0.81641l-38.725 27.158c-2.2145 1.8199-2.3787 5.9232-0.27343 9.5723l0.002 0.002c2.1141 3.6313 5.7397 5.5332 8.418 4.5371l42.89-19.964c4.0379-2.326 4.6166-8.9558 1.2031-14.889-2.5814-4.4556-6.628-7.148-10.184-7.2324zm-100.09 62.151c-0.55461-0.0075-1.0923 0.07818-1.5957 0.26758l-42.871 19.941c-4.0211 2.3362-4.6301 8.9688-1.1934 14.908 3.4264 5.9212 9.4659 8.7362 13.488 6.4141l38.723-27.137c2.228-1.8422 2.3924-5.9442 0.27539-9.5898l0.0176 0.008c-1.7116-2.9695-4.4404-4.7798-6.8438-4.8125zm64.609 0c-2.4006 0.0327-5.124 1.843-6.8398 4.8125l0.0156-0.008c-2.1066 3.6456-1.9435 7.7476 0.27148 9.5898l38.725 27.137c4.0146 2.3221 10.06-0.49281 13.502-6.4141 3.4135-5.9394 2.8348-12.572-1.2031-14.908l-42.877-19.941c-0.50337-0.1894-1.0398-0.27513-1.5938-0.26758zm-32.32 19.523c-4.1958 0.005-7.6644 2.1849-8.123 5.0156l-4.1602 47.105c0 4.6648 5.4447 8.4824 12.295 8.4824 6.863 0 12.318-3.8177 12.318-8.4824l-4.1699-47.105c-0.46891-2.8307-3.9333-5.0102-8.1445-5.0156h-0.0156z"
    transform="matrix(.8 0 0 -.8 0 467.81)"
    fill="#ffc220"/>
</g></g>
</svg>
